<svg width="58" height="58" viewBox="0 0 58 58" fill="none" xmlns="http://www.w3.org/2000/svg">
<path d="M56.9745 8.14417H53.4735V49.8559H56.9745C57.6081 49.2223 58 48.347 58 47.3803V10.6197C58 9.65298 57.6081 8.77773 56.9745 8.14417Z" fill="#00BDAA"/>
<path d="M54.499 10.6197C54.499 9.65298 54.1071 8.77773 53.4736 8.14417H1.02544C0.391879 8.77773 0 9.65298 0 10.6197V47.3803C0 48.347 0.391879 49.2223 1.02544 49.8559H53.4736C54.1071 49.2223 54.499 48.347 54.499 47.3803V10.6197Z" fill="#19CBB9"/>
<path d="M54.499 47.3803L50.998 50.8813H54.499C55.4657 50.8813 56.341 50.4894 56.9746 49.8558L54.499 47.3803Z" fill="#10C4B1"/>
<path d="M54.499 47.3803L29 21.8813L1.02545 49.8558C1.65902 50.4894 2.53427 50.8813 3.50101 50.8813H50.998C52.9316 50.8813 54.499 49.3139 54.499 47.3803Z" fill="#00BDAA"/>
<path d="M54.499 7.11871H50.998L54.499 10.6197L56.9746 8.14416C56.341 7.51059 55.4657 7.11871 54.499 7.11871V7.11871Z" fill="#20EBD6"/>
<path d="M50.998 7.11871H3.50101C2.53427 7.11871 1.65902 7.51059 1.02545 8.14416L24.0489 31.1676C26.7833 33.902 31.2167 33.9021 33.9512 31.1676L54.499 10.6197C54.499 8.68611 52.9316 7.11871 50.998 7.11871Z" fill="#C4F3FF"/>
</svg>
