<svg width="80" height="80" viewBox="0 0 80 80" fill="none" xmlns="http://www.w3.org/2000/svg">
<g clip-path="url(#clip0)">
<path d="M73.4597 24.7118C74.3252 22.1148 74.7585 19.4228 74.7585 16.6345C74.7585 12.9165 73.9403 9.42267 72.306 6.15352C68.8772 6.15352 65.8484 6.7791 63.2195 8.02873C60.5919 9.2787 57.5952 11.2177 54.2309 13.8458C50.0006 12.8203 45.5121 12.3075 40.7695 12.3075C35.5769 12.3075 30.6248 12.8688 25.9136 13.9905C22.4844 11.2979 19.4556 9.31928 16.8273 8.05298C14.1991 6.78667 11.1544 6.15369 7.69262 6.15369C6.05804 9.42284 5.24084 12.9168 5.24084 16.6347C5.24084 19.4554 5.67327 22.1798 6.5388 24.8076C2.17932 29.9041 0 36.2499 0 43.8462C0 50.5137 0.993172 55.8175 2.98069 59.7604C4.0387 61.8429 5.41647 63.6859 7.11537 65.289C8.8136 66.8911 10.7528 68.19 12.9324 69.1839C15.1124 70.1767 17.3074 71.0027 19.5192 71.6591C21.7309 72.3158 24.1746 72.7971 26.851 73.1003C29.5272 73.4061 31.8909 73.6062 33.9421 73.703C35.9933 73.798 38.2686 73.8466 40.7694 73.8466C43.7176 73.8466 46.393 73.7739 48.7979 73.6306C51.2021 73.4866 53.9497 73.1333 57.043 72.5738C60.1359 72.0125 62.8605 71.2507 65.2168 70.2895C67.5725 69.3284 69.8327 67.9498 71.996 66.1554C74.1593 64.3598 75.8495 62.2288 77.0681 59.7605C79.0221 55.786 80.0002 50.481 80.0002 43.8464C79.999 36.2179 77.8195 29.8399 73.4597 24.7118ZM67.6924 59.6871C66.6666 61.7871 65.3683 63.4364 63.7981 64.6395C62.2271 65.8417 60.2723 66.8028 57.9328 67.5249C55.5922 68.2458 53.3497 68.7183 51.2021 68.9419C49.0537 69.1665 46.6668 69.2784 44.0378 69.2784H35.9608C33.3327 69.2784 30.9444 69.1665 28.7973 68.9419C26.6499 68.7183 24.4065 68.2458 22.0665 67.5249C19.7274 66.8028 17.7725 65.8417 16.2016 64.6395C14.6307 63.4362 13.3327 61.7871 12.307 59.6871C11.2815 57.5871 10.7686 55.1278 10.7686 52.3076C10.7686 48.4603 11.8744 45.1907 14.0863 42.4996C16.2979 39.807 19.2944 38.4612 23.0762 38.4612C24.455 38.4612 27.58 38.7975 32.4517 39.4707C34.7272 39.8232 37.2434 39.9995 39.9995 39.9995C42.7564 39.9995 45.2723 39.8237 47.5475 39.4707C52.4842 38.7973 55.6082 38.4612 56.9231 38.4612C60.7047 38.4612 63.7012 39.8077 65.9129 42.4996C68.1247 45.1918 69.2299 48.4603 69.2299 52.3076C69.2299 55.1283 68.7169 57.589 67.6924 59.6871Z" fill="#C169AD"/>
<path d="M28.1003 44.7112C27.1226 43.6209 25.9612 43.0758 24.6148 43.0758C23.268 43.0758 22.1064 43.6216 21.1289 44.7112C20.1519 45.8004 19.4623 47.0187 19.0619 48.3635C18.6606 49.711 18.4606 51.0247 18.4606 52.3075C18.4606 53.589 18.6611 54.903 19.0619 56.2503C19.4618 57.5959 20.1511 58.8135 21.1289 59.9025C22.1069 60.9928 23.268 61.5381 24.6148 61.5381C25.9612 61.5381 27.1231 60.9918 28.1003 59.9025C29.0776 58.8133 29.7669 57.5959 30.1673 56.2503C30.5681 54.903 30.7686 53.589 30.7686 52.3075C30.7686 51.0259 30.5686 49.711 30.1673 48.3635C29.7667 47.0192 29.0781 45.8014 28.1003 44.7112Z" fill="#C169AD"/>
<path d="M58.8698 44.7112C57.8924 43.6209 56.7307 43.0758 55.3846 43.0758C54.0389 43.0758 52.8765 43.6216 51.8987 44.7112C50.9214 45.8004 50.2323 47.0187 49.8324 48.3635C49.4308 49.711 49.2302 51.0247 49.2302 52.3075C49.2302 53.589 49.4308 54.903 49.8324 56.2503C50.2323 57.5959 50.9215 58.8135 51.8987 59.9025C52.8767 60.9928 54.0389 61.5381 55.3846 61.5381C56.7307 61.5381 57.8926 60.9918 58.8698 59.9025C59.8466 58.8133 60.5362 57.5959 60.9373 56.2503C61.3379 54.903 61.5383 53.589 61.5383 52.3075C61.5383 51.0259 61.3379 49.711 60.9373 48.3635C60.5363 47.0192 59.8466 45.8014 58.8698 44.7112Z" fill="#C169AD"/>
</g>
<defs>
<clipPath id="clip0">
<rect width="80" height="80" fill="white"/>
</clipPath>
</defs>
</svg>
