<svg width="58" height="58" viewBox="0 0 58 58" fill="none" xmlns="http://www.w3.org/2000/svg">
<path d="M56.1853 30.8113C55.1844 30.8113 54.3729 29.9998 54.3729 28.9989C54.3729 15.0076 42.9901 3.62486 28.9989 3.62486C27.9979 3.62486 27.1864 2.81334 27.1864 1.81243C27.1864 0.811515 27.9979 0 28.9989 0C36.7448 0 44.0271 3.01634 49.5042 8.4935C54.9814 13.9707 57.9977 21.2529 57.9977 28.9989C57.9977 29.9998 57.1862 30.8113 56.1853 30.8113Z" fill="#F79CAF"/>
<path d="M48.9356 30.8113C47.9347 30.8113 47.1232 29.9998 47.1232 28.9989C47.1232 19.0051 38.9926 10.8746 28.9989 10.8746C27.9979 10.8746 27.1864 10.0631 27.1864 9.06214C27.1864 8.06123 27.9979 7.24971 28.9989 7.24971C40.9914 7.24971 50.748 17.0064 50.748 28.9989C50.748 29.9998 49.9365 30.8113 48.9356 30.8113Z" fill="#F79CAF"/>
<path d="M41.6859 30.8113C40.685 30.8113 39.8734 29.9998 39.8734 28.9989C39.8734 23.0025 34.9952 18.1243 28.9989 18.1243C27.9979 18.1243 27.1864 17.3128 27.1864 16.3118C27.1864 15.3109 27.9979 14.4994 28.9989 14.4994C36.9939 14.4994 43.4983 21.0038 43.4983 28.9989C43.4983 29.9998 42.6868 30.8113 41.6859 30.8113Z" fill="#F79CAF"/>
<path d="M57.9977 28.9989C57.9977 30.0002 57.1867 30.8113 56.1853 30.8113C55.8546 30.8113 55.5453 30.7229 55.2791 30.5689C55.8206 30.2562 56.1853 29.6695 56.1853 28.9989C56.1853 21.253 53.1688 13.9704 47.6918 8.4935C42.5581 3.35979 35.8385 0.387407 28.6375 0.0351158C28.7542 0.0124605 28.8754 0 28.9989 0C36.7447 0 44.0273 3.01656 49.5042 8.4935C54.9812 13.9704 57.9977 21.253 57.9977 28.9989Z" fill="#E3889B"/>
<path d="M50.748 28.9989C50.748 30.0002 49.937 30.8113 48.9356 30.8113C48.6048 30.8113 48.2956 30.7229 48.0294 30.5689C48.5709 30.2562 48.9356 29.6695 48.9356 28.9989C48.9356 17.4797 39.9335 8.02339 28.5945 7.29502C28.7248 7.26557 28.8596 7.24971 28.9989 7.24971C40.9915 7.24971 50.748 17.0062 50.748 28.9989Z" fill="#E3889B"/>
<path d="M43.4983 28.9989C43.4983 30.0002 42.6873 30.8113 41.6859 30.8113C41.3551 30.8113 41.0459 30.7229 40.7797 30.5689C41.3211 30.2562 41.6859 29.6695 41.6859 28.9989C41.6859 21.4558 35.8963 15.2403 28.5276 14.5617C28.6783 14.521 28.8358 14.4994 28.9989 14.4994C36.994 14.4994 43.4983 21.0038 43.4983 28.9989Z" fill="#E3889B"/>
<path d="M58.0001 41.6406C58.0001 44.3875 57.3498 46.9895 56.0687 49.3728C54.8657 51.6089 53.1235 53.5663 51.0279 55.0344C48.9413 56.4968 46.5195 57.4619 44.0262 57.8278C43.2446 57.9422 42.463 58 41.6848 58C39.8123 58 37.9557 57.6692 36.141 57.01C28.1437 54.1044 20.7207 49.3728 14.6739 43.3261C8.62722 37.2794 3.89565 29.8564 0.990095 21.859C0.0566936 19.2899 -0.218569 16.637 0.172236 13.9738C0.53812 11.4806 1.50324 9.05875 2.96564 6.97219C4.43371 4.87657 6.39113 3.13437 8.62722 1.93137C11.0106 0.650209 13.6125 0 16.3595 0C17.2147 0 17.9533 0.596969 18.1323 1.43295L20.9767 14.709C21.1058 15.3094 20.9212 15.9358 20.4862 16.3696L15.6255 21.2315C20.2109 30.348 27.6521 37.7891 36.7686 42.3746L41.6304 37.5139C42.0643 37.0789 42.6907 36.8943 43.2911 37.0234L56.5671 39.8678C57.4031 40.0468 58.0001 40.7853 58.0001 41.6406Z" fill="#00BDAA"/>
<path d="M12.1682 4.19124C9.42123 4.19124 6.81927 4.84145 4.43592 6.12261C3.90918 6.4058 3.39717 6.71958 2.90442 7.06168C2.92368 7.03109 2.9452 7.00164 2.96559 6.97219C4.43366 4.87657 6.39108 3.13437 8.62716 1.93137C11.0105 0.650209 13.6125 0 16.3594 0C17.2147 0 17.9532 0.596969 18.1322 1.43295L20.9766 14.709C21.1057 15.3094 20.9211 15.9358 20.4861 16.3696L16.2949 20.5609C16.7299 20.127 16.9145 19.5006 16.7854 18.9002L13.941 5.62419C13.762 4.78821 13.0234 4.19124 12.1682 4.19124Z" fill="#C4F3FF"/>
<path d="M36.7685 42.3746L34.3642 44.7789C33.274 45.8691 31.5898 46.0829 30.2532 45.3144C22.9583 41.1203 16.8797 35.0416 12.6855 27.7467C11.9171 26.41 12.1308 24.7258 13.221 23.6357L15.6253 21.2314C20.2108 30.348 27.652 37.7892 36.7685 42.3746Z" fill="#C4F3FF"/>
<path d="M58 41.6406C58 44.3875 57.3498 46.9895 56.0686 49.3728C54.8656 51.6089 53.1234 53.5663 51.0278 55.0344C50.9984 55.0548 50.9689 55.0763 50.9383 55.0956C51.2804 54.6028 51.5942 54.0908 51.8774 53.5641C53.1585 51.1807 53.8088 48.5788 53.8088 45.8318C53.8088 44.9766 53.2118 44.238 52.3758 44.059L39.0998 41.2146C38.4994 41.0855 37.873 41.2702 37.4391 41.7051L41.6304 37.5139C42.0642 37.0789 42.6906 36.8943 43.291 37.0234L56.567 39.8678C57.403 40.0468 58 40.7853 58 41.6406V41.6406Z" fill="#C4F3FF"/>
</svg>
