<svg width="87" height="79" viewBox="0 0 87 79" fill="none" xmlns="http://www.w3.org/2000/svg">
<path d="M42.7 73.6C62.7479 73.6 79 57.3479 79 37.3C79 17.2521 62.7479 1 42.7 1C22.6521 1 6.39999 17.2521 6.39999 37.3C6.39999 57.3479 22.6521 73.6 42.7 73.6Z" fill="#029687"/>
<path d="M7.79999 37.3C7.79999 17.7 23.1 2.6 42.7 2.6C62.3 2.6 78.1 20 77.4 37.4C76.6 56.2 63.8 71.5 44.2 71.5C24.5 71.5 7.79999 56.9 7.79999 37.3Z" fill="white"/>
<path d="M31.1 20.4C31 20.4 31 20.5 30.8 20.5C30.7 20.5 30.6 20.6 30.6 20.6C30.5 20.6 30.4 20.8 30.4 20.8C30.4 20.8 30.4 20.8 30.3 20.9C30.2 20.9 30.2 20.9 30 20.9C29.9 20.9 29.9 20.8 29.9 20.8C29.9 20.8 29.8 20.8 29.7 20.8C29.6 20.8 29.3 21 29.3 20.9C29.3 20.9 29.2 20.9 29.1 20.8C29 20.8 28.9 20.8 28.8 20.8C28.7 20.8 28.8 20.8 28.8 20.9C28.8 21 28.8 21 28.6 21.1C28.5 21.1 28.4 21.2 28.4 21.2C28.3 21.2 28.4 21.3 28.4 21.3C28.4 21.3 28.5 21.3 28.7 21.4C28.9 21.4 28.8 21.5 28.8 21.5L28.7 21.6H28.5C28.5 21.6 28.3 21.7 28.3 21.6H28.2L28.1 21.7L28 21.8C28 21.8 27.9 21.8 27.8 21.7C27.7 21.7 27.7 21.7 27.6 21.7L27.4 21.8L27.3 21.9C27.3 21.9 27.1 22 27 22C26.9 22 26.8 22.1 26.8 22.2C26.7 22.3 26.6 22.3 26.5 22.3C26.4 22.3 26.3 22.3 26.3 22.3C26.2 22.2 26.3 22.2 26.4 22.1C26.5 22 26.6 22.1 26.6 22C26.7 22 26.7 21.9 26.7 21.8C26.7 21.7 26.8 21.6 26.8 21.6C26.8 21.6 26.9 21.5 27 21.4C27.1 21.4 27.1 21.3 27.2 21.2C27.2 21.1 27.2 21.1 27.2 20.9C27.2 20.8 27.2 20.7 27.2 20.7C27.2 20.7 27.3 20.7 27.4 20.6C27.5 20.6 27.5 20.5 27.6 20.4C27.7 20.3 27.6 20.3 27.5 20.2C27.5 20.1 27.4 20.1 27.4 20C27.3 20 27.4 19.9 27.4 19.8C27.4 19.8 27.5 19.9 27.6 19.9C27.7 19.9 27.8 20.1 27.8 20.1C27.8 20.2 28 20.2 28.1 20.3C28.2 20.4 28.3 20.3 28.4 20.3C28.5 20.2 28.5 20.1 28.5 20.1C28.5 20.1 28.4 20 28.5 20C28.5 19.9 28.3 19.9 28.3 19.8C28.3 19.7 28.1 19.8 28.1 19.7C28.1 19.6 28 19.6 28 19.5C28 19.4 27.8 19.4 27.7 19.4H27.5L27.4 19.3C27.4 19.3 27.2 19.3 27.1 19.2C27.1 19.2 26.8 19.2 26.7 19.2C26.6 19.2 26.1 19.3 26.1 19.3C26.1 19.3 25.9 19.3 25.9 19.2C25.8 19.2 25.9 19.1 25.9 19.1C25.9 19 25.8 19 25.7 18.9C25.6 18.9 25.6 18.8 25.6 18.8C25.6 18.7 25.7 18.7 25.8 18.7C25.8 18.7 25.7 18.5 25.6 18.5C25.5 18.5 25.6 18.4 25.6 18.3C25.7 18.2 25.5 18.1 25.5 18.1C25.5 18 25.3 18.1 25.2 18.1C25.1 18.1 25.1 18.2 25.1 18.3C25 18.3 25 18.4 25 18.3C25 18.2 25.1 18.2 25.1 18.1C25.1 18 24.8 17.8 24.9 17.8C24.9 17.7 24.8 17.7 24.8 17.6L24.7 17.5C24.7 17.5 24.5 17.5 24.4 17.5C24.3 17.5 24.1 17.6 24.1 17.5L24 17.4C23.9 17.3 23.7 17.4 23.7 17.4C23.7 17.5 23.6 17.6 23.5 17.6C23.4 17.7 23.2 17.9 23.2 17.8L23.1 17.7C23 17.7 22.9 18 22.9 18C22.9 18.1 22.5 18.3 22.4 18.3C22.3 18.3 22.1 18.4 21.9 18.5C21.8 18.6 21.5 18.8 21.4 18.8C21.3 18.8 21 19 21 19.1V19.2C21 19.2 21 19.2 21.1 19.2C21.2 19.2 21.3 19.2 21.4 19.1C21.5 19 21.4 19 21.5 19C21.6 18.9 21.7 19 21.7 19C21.8 19 21.7 19.1 21.6 19.1L21.7 19.2C21.8 19.2 21.9 19.3 21.9 19.2C22 19.2 21.9 19.2 22.1 19.1C22.3 19 22.2 19.1 22.4 19.1C22.6 19.1 22.5 19 22.7 18.9C22.8 18.8 22.9 18.8 23 18.7C23.2 18.6 23.2 18.5 23.3 18.5L23.5 18.7C23.4 18.8 23.3 18.8 23.1 18.9C22.9 19 23.1 19 23.3 18.9C23.4 18.9 23.5 18.9 23.6 19C23.7 19 23.8 19.2 23.9 19.2C24 19.1 24 19.3 24.1 19.3C24.2 19.3 24.3 19.3 24.3 19.3C24.4 19.3 24.5 19.2 24.6 19.1C24.8 19 24.8 19.1 24.9 19.1C25 19.1 25.1 19.1 25.2 19.1C25.3 19.1 25.2 19.1 25.3 19.2C25.4 19.3 25.4 19.3 25.5 19.3C25.6 19.3 25.7 19.3 25.8 19.4C25.9 19.5 26 19.6 25.9 19.5C25.8 19.5 25.9 19.5 25.8 19.5C25.7 19.5 25.7 19.5 25.6 19.5C25.5 19.5 25.5 19.5 25.3 19.5C25.1 19.5 25.2 19.5 25.1 19.5C25 19.5 25 19.6 24.9 19.6C24.8 19.7 24.8 19.6 24.7 19.6C24.6 19.6 24.5 19.7 24.5 19.7C24.5 19.7 24.4 19.8 24.3 19.9C24.2 19.9 24.2 19.9 24.1 19.9C24 19.9 23.9 19.9 23.8 19.9C23.8 19.9 23.7 20 23.7 20.1C23.7 20.2 23.7 20.1 23.6 20.3C23.5 20.5 23.5 20.4 23.4 20.5C23.3 20.6 23.3 20.7 23.3 20.7C23.3 20.7 23.3 20.7 23.5 20.5C23.6 20.3 23.8 20.1 23.8 20C23.8 19.9 23.8 20.1 23.8 20.2C23.8 20.3 23.8 20.3 23.7 20.4C23.7 20.5 23.6 20.6 23.6 20.7C23.5 20.8 23.5 20.9 23.4 20.9C23.3 21 23.3 21 23.2 21.1C23.1 21.2 23.2 21.5 23.2 21.5C23.2 21.6 23.2 21.6 23 21.7C22.9 21.8 23 22 23 22.1C23 22.2 23.1 22.5 23.1 22.6C23.1 22.7 23.5 22.8 23.5 22.8C23.5 22.8 23.7 22.7 23.8 22.6C23.9 22.5 23.8 22.5 23.9 22.4C23.9 22.3 24 22.2 24.1 22.1C24.2 22 24.2 21.9 24.2 21.8C24.2 21.6 24.1 21.6 24 21.6C23.9 21.5 23.9 21.5 23.9 21.5C23.9 21.5 23.9 21.3 24 21.2C24.1 21.1 24.1 21.1 24.1 21C24.1 20.9 24.1 20.8 24.1 20.8C24.1 20.7 24.2 20.7 24.3 20.6C24.4 20.5 24.4 20.5 24.5 20.5C24.6 20.4 24.6 20.5 24.7 20.6C24.8 20.7 24.8 20.6 24.9 20.5C25 20.4 24.9 20.4 25 20.3C25.1 20.2 25 20.2 25.2 20.1C25.3 20 25.3 20 25.3 20C25.3 20 25.4 20.1 25.5 20C25.6 20 25.8 20 25.8 20C25.9 20 26.1 20.1 26.2 20.2C26.3 20.2 26.3 20.4 26.3 20.5C26.3 20.6 26.3 20.9 26.2 21.1C26.2 21.2 26.1 21.2 26.2 21.2C26.2 21.2 26.1 21.3 26 21.3C25.8 21.3 25.9 21.4 25.8 21.4C25.7 21.5 25.9 21.6 26 21.6C26.1 21.6 26.1 21.5 26.2 21.4C26.3 21.3 26.3 21.3 26.4 21.2C26.5 21.2 26.5 21.3 26.5 21.3C26.5 21.3 26.6 21.3 26.7 21.4C26.8 21.5 26.7 21.6 26.7 21.6V21.8C26.7 21.9 26.7 21.9 26.6 22C26.5 22 26.5 22.1 26.5 22.1C26.4 22.1 26.3 22.5 26.1 22.6C25.9 22.7 26.1 22.7 26 22.7C25.9 22.8 26 22.7 26 22.8C26 22.9 26.1 22.9 26.2 22.9C26.3 22.9 26.4 22.9 26.4 23C26.5 23 26.7 23.1 26.8 23C26.9 22.9 27.3 22.9 27.4 22.9C27.5 22.8 27.5 22.8 27.6 22.7C27.7 22.6 27.8 22.7 27.8 22.7C27.8 22.7 28 22.6 28.1 22.6C28.2 22.6 28.3 22.6 28.4 22.5L28.5 22.3C28.5 22.3 28.7 22.2 28.8 22.2C28.9 22.1 29 22.1 29 22C29 21.9 29 21.8 29 21.7C29 21.6 29.3 21.7 29.4 21.7C29.5 21.7 29.6 21.7 29.7 21.7C29.8 21.7 29.8 21.7 30.1 21.8C30.3 21.9 30.2 21.8 30.4 21.7C30.4 21.7 30.5 21.7 30.6 21.7C30.7 21.7 30.7 21.7 30.7 21.6C30.8 21.5 30.7 21.5 30.8 21.4C30.9 21.3 30.8 21.3 30.8 21.2C30.8 21.1 30.9 21.1 31 21.1C31.1 21 31.5 20.6 31.6 20.6C31.6 20.5 31.6 20.6 31.5 20.6C31.3 20.2 31.2 20.4 31.1 20.4Z" fill="#029687"/>
<path d="M18.4 15.2C18.3 15.2 18.3 14.9 18.3 14.9C18.3 14.9 18.3 14.7 18.2 14.7C18.2 14.7 18.1 14.5 18.2 14.4C18.2 14.3 18.2 14.2 18.1 14.2C18 14.2 18 14.1 18 14.1C18 14.1 18.1 13.9 18.1 13.8C18.1 13.8 18 13.7 17.9 13.7C17.8 13.6 17.6 13.6 17.8 13.5C18 13.4 17.9 13.4 18.1 13.3C18.3 13.2 18.3 13.2 18.2 13.2C18.1 13.2 18 13.3 18 13.2C18 13.2 18 13 18 13C18 13 17.8 13.5 17.7 13.6C17.6 13.6 17.4 13.6 17.4 13.6C17.4 13.6 17.3 13.7 17.2 13.8C17.1 13.9 17 14 17 14.1C17 14.2 17 14.3 17.1 14.3C17.2 14.3 17.3 14.2 17.4 14.3C17.5 14.3 17.3 14.4 17.3 14.5C17.3 14.6 17.3 14.6 17.4 14.7C17.5 14.8 17.7 15 17.6 15.1C17.6 15.2 17.8 15 17.8 15.1C17.9 15.1 18 15.2 18 15.3C18 15.3 18 15.4 18 15.5C17.9 15.6 18 15.6 18.1 15.6L18.3 15.5C18.3 15.5 18.3 15.6 18.3 15.7C18.3 15.8 18.2 15.9 18.2 16C18.1 16.1 18.1 16.1 18.1 16.3C18.1 16.4 18 16.4 18.1 16.5C18.2 16.6 18.3 16.4 18.4 16.3C18.5 16.2 18.5 16 18.6 16C18.6 15.9 18.6 15.8 18.6 15.7C18.5 15.4 18.5 15.3 18.4 15.2Z" fill="#029687"/>
<path d="M74.9 24.2C74.9 24.2 74.9 24.1 75 24.1C74.7 23.5 74.5 22.8 74.2 22.2C74.1 22.2 74 22.3 73.9 22.2C73.8 22.1 73.8 21.9 73.8 21.9C73.8 21.9 73.5 21.7 73.4 21.7C73.3 21.7 72.9 21.6 72.9 21.6C72.9 21.6 72.9 21.4 72.8 21.4C72.7 21.4 72.5 21.2 72.5 21.1C72.4 21 72.3 20.9 72.2 20.9C72.2 20.9 72.2 20.9 72.1 20.8C72 20.7 71.9 20.6 71.8 20.5C71.8 20.5 71.7 20.3 71.6 20.2C71.6 20.1 71.5 20 71.5 19.9C71.5 19.8 71.5 19.7 71.4 19.6C71.3 19.6 71.1 19.5 71.1 19.5C71 19.5 70.9 19.6 70.9 19.5C70.8 19.5 70.8 19.4 70.7 19.4C70.6 19.4 70.6 19.3 70.5 19.4C70.4 19.5 70.4 19.4 70.3 19.4C70.2 19.4 70.2 19.5 70.1 19.6C70 19.7 70 19.6 70 19.7C70 19.7 70 19.6 69.8 19.7C69.6 19.8 69.6 19.9 69.5 19.9C69.5 20 69.5 19.8 69.3 20C69.1 20.2 68.9 20.3 68.8 20.4C68.7 20.4 68.4 20.3 68.4 20.3C68.3 20.3 68.2 20.3 68.2 20.3C68.2 20.3 68.1 20.2 68 20.1C67.9 20.1 67.7 20.1 67.6 20.1C67.5 20.1 67.5 20 67.4 20C67.3 20 67.1 20.1 67.1 20.2C67.1 20.3 66.9 20.4 66.8 20.5C66.8 20.6 66.7 20.6 66.8 20.7C66.8 20.8 66.8 20.8 66.9 20.9C66.9 21 67 21.1 67 21.1C67 21.2 67.1 21.2 67 21.3C66.9 21.4 66.9 21.4 66.8 21.5C66.7 21.6 66.7 21.4 66.6 21.5C66.4 21.7 66.3 21.8 66.3 21.8C66.3 21.8 66.1 21.8 66.1 21.9C66 21.9 65.9 21.9 65.9 22L65.7 22.2L65.5 22.3C65.5 22.3 65.3 22.4 65.3 22.5C65.3 22.5 65.2 22.6 65.2 22.7C65.2 22.7 65 23.1 65 23.2C65 23.3 64.9 23.3 64.9 23.4C64.9 23.5 64.8 23.5 64.9 23.6C64.9 23.7 64.9 23.8 65 23.8C65.1 23.9 65.1 23.9 65.2 24C65.2 24.1 65.2 24.1 65.2 24.2L65 24.3C65 24.3 64.9 24.3 64.9 24.4C64.8 24.5 64.8 24.5 64.8 24.6C64.7 24.7 64.7 24.7 64.6 24.8C64.6 24.9 64.5 24.8 64.5 24.9C64.5 25 64.2 25.1 64.2 25.1C64.2 25.1 64.1 25.2 64 25.2C64 25.3 63.8 25.5 63.8 25.5C63.7 25.5 63.7 25.6 63.6 25.6C63.6 25.6 63.5 25.6 63.5 25.7C63.5 25.7 63.2 25.6 63.2 25.7L63 25.8L62.9 25.7C62.8 25.7 62.7 25.7 62.6 25.8C62.5 25.8 62.5 25.8 62.4 25.8C62.3 25.8 62.3 25.8 62.2 25.8C62.1 25.9 61.8 25.9 61.8 25.9C61.8 25.9 61.7 26 61.6 26C61.5 26.1 61.4 26.2 61.4 26.1L61.1 26L60.9 25.7C60.9 25.7 60.9 25.5 60.8 25.4C60.7 25.4 60.5 25.3 60.5 25.3C60.5 25.3 60.4 25.2 60.3 25.3H60.2H60.1C60 25.4 60.1 25.4 60 25.4C59.9 25.4 59.8 25.4 59.8 25.4C59.8 25.4 59.5 25 59.4 25C59.3 25 59.3 25 59.2 25C59.1 25 59 25.1 59 25.1C59 25.1 58.9 25.1 58.9 25C58.9 24.9 58.9 24.8 59 24.7C59.1 24.6 59.1 24.5 59.1 24.4C59.1 24.3 59.1 24.2 59.1 24.2L59 24C58.9 24 58.8 24 58.8 23.9C58.8 23.8 58.8 23.7 58.8 23.7C58.8 23.7 58.8 23.7 58.8 23.6C58.8 23.5 58.8 23.5 58.9 23.4C59 23.3 59 23.3 59.1 23.1C59.1 23 59.4 22.3 59.4 22.2C59.4 22.1 59.4 22 59.4 21.9C59.4 21.8 59.4 21.7 59.4 21.6C59.4 21.6 59.3 21.5 59.3 21.4C59.3 21.3 59.3 21.3 59.3 21.1C59.3 21 59.3 20.9 59.3 20.9C59.3 20.8 59.3 20.9 59.2 20.8C59.1 20.7 59.1 20.6 59.1 20.6L59 20.5C59 20.4 59.1 20.3 59.2 20.3C59.3 20.3 59.4 20.2 59.5 20.2H59.7C59.8 20.1 59.8 20 59.8 20C59.8 20 59.9 19.9 60 19.9C60.1 19.9 60.2 19.9 60.2 20C60.3 20.1 60.3 20 60.3 20.1C60.4 20.2 60.3 20.1 60.5 20.1C60.6 20.1 60.7 20.1 60.7 20.1L61.1 20C61.1 20 61.3 20 61.3 20.1C61.3 20.1 61.4 20.1 61.5 20.1C61.6 20.1 61.8 20.2 61.8 20.2C61.8 20.2 61.9 20.2 62 20.2C62.1 20.2 62.3 20.1 62.3 20.1C62.3 20.1 62.3 20.1 62.4 20.1C62.6 20.1 62.6 20.2 62.7 20.2C62.8 20.2 63 20.1 63 20.2C63.1 20.2 63.1 20.2 63.2 20.2C63.3 20.2 63.3 20.2 63.4 20.2C63.5 20.2 63.5 20.2 63.6 20.2C63.7 20.2 63.7 20.2 63.8 20.2C64 20 64 20 64 19.9C64 19.8 64.1 19.3 64.2 19.2C64.2 19.1 64.2 18.8 64.2 18.8C64.2 18.7 64.2 18.7 64.3 18.6C64.3 18.6 64.3 18.5 64.3 18.4V18.2C64.3 18.1 64.3 18.1 64.2 18.1C64.1 18.1 64.1 18 64 17.9C63.9 17.9 63.9 17.8 63.8 17.7C63.7 17.6 63.6 17.5 63.6 17.5V17.4C63.6 17.3 63.5 17.3 63.5 17.3C63.5 17.3 63.5 17.2 63.4 17.2C63.3 17.2 63.3 17.2 63.2 17.2C63.1 17.2 63.1 17.1 63 17.1C62.9 17.1 62.8 17 62.8 17L62.7 16.9C62.7 16.9 62.7 16.9 62.6 16.9C62.5 16.9 62.3 16.9 62.3 16.9C62.3 16.9 62.2 16.8 62.2 16.7C62.2 16.6 62.1 16.5 62.1 16.4C62.2 16.3 62.4 16.2 62.4 16.2C62.4 16.2 62.4 16.3 62.6 16.2C62.7 16.1 62.8 16.2 62.8 16.2C62.8 16.2 62.9 16.1 63 16.1C63.1 16.1 63.1 16.1 63.1 16.1C63.1 16.1 63.2 16 63.3 16.1C63.4 16.2 63.4 16.2 63.5 16.2C63.6 16.2 63.7 16.1 63.8 16.2C63.9 16.3 63.9 16.2 64 16.2C64.1 16.2 64.2 16.3 64.2 16.2C64.2 16.1 64.2 15.9 64.1 15.9C64 15.9 64 15.7 64 15.7C64 15.6 64 15.6 63.9 15.5C63.9 15.5 63.8 15.4 63.9 15.4C64 15.4 64.2 15.4 64.3 15.4C64.4 15.4 64.5 15.5 64.6 15.5C64.6 15.6 64.8 15.6 64.8 15.6C64.9 15.6 65.2 15.5 65.2 15.6C65.2 15.6 65.4 15.6 65.4 15.5C65.4 15.4 65.4 15.4 65.4 15.3C65.4 15.2 65.5 15.2 65.5 15.2C65.5 15.2 65.6 15.1 65.7 15.1C65.8 15.1 65.9 15 66 15C66.1 15 66.3 14.8 66.3 14.8C66.3 14.8 66.2 14.5 66.3 14.5C66.3 14.5 66.3 14.3 66.4 14.3C66.5 14.2 66.7 14.1 66.7 14.1C66.7 14.1 66.7 14.1 66.8 14.1H66.9C67 14.1 67.1 14 67.1 14L67.4 13.8C67.5 13.8 67.5 13.7 67.6 13.7C67.7 13.7 67.9 13.6 67.9 13.6C67.9 13.6 68 13.4 68.1 13.4C64.3 9.4 59.5 6.2 54.1 4.4C54.1 4.4 54.1 4.4 54.1 4.5C54.1 4.6 54.2 4.6 54.3 4.6C54.4 4.7 54.4 4.6 54.4 4.7L54.5 4.8C54.5 4.8 54.5 4.9 54.5 5C54.5 5 54.5 5 54.5 5.1C54.5 5.2 54.5 5.3 54.5 5.3C54.5 5.3 54.1 5.1 54 5.1C54 5.1 53.9 5.1 53.9 5.2C53.9 5.2 53.8 5.2 53.8 5.3C53.8 5.4 53.9 5.4 53.9 5.4C53.9 5.5 53.9 5.5 53.8 5.5C53.8 5.5 53.7 5.5 53.7 5.6C53.7 5.6 53.7 5.7 53.7 5.8C53.7 5.9 53.7 5.9 53.7 6C53.7 6.1 53.7 6 53.6 6.1C53.5 6.2 53.5 6.1 53.5 6.2C53.5 6.3 53.6 6.2 53.5 6.3C53.4 6.4 53.3 6.3 53.3 6.3C53.2 6.3 53.1 6.3 53.2 6.4C53.3 6.5 53.3 6.5 53.4 6.5C53.5 6.5 53.5 6.5 53.5 6.6C53.5 6.7 53.4 6.7 53.4 6.7H53.3C53.2 6.7 53.2 6.7 53.2 6.8C53.2 6.9 53.1 6.9 53.1 6.9V6.7C53.1 6.7 53 6.7 52.9 6.7C52.9 6.7 52.9 6.6 52.8 6.6C52.7 6.6 52.6 6.7 52.6 6.7C52.6 6.7 52.5 6.7 52.5 6.6C52.5 6.6 52.5 6.5 52.6 6.4C52.6 6.4 52.7 6.3 52.6 6.3C52.5 6.3 52.5 6.4 52.5 6.3C52.5 6.2 52.5 6.1 52.5 6.1H52.3C52.2 6.1 52.1 6.1 52.1 6C52.1 6 52.1 5.9 52.2 5.9C52 6 52 6 52.1 5.9L52.2 5.7C52.2 5.6 52.2 5.6 52.2 5.5L52 5.7L51.9 5.6V5.5C51.9 5.5 51.9 5.4 51.8 5.5C51.7 5.6 51.7 5.6 51.7 5.7C51.7 5.8 51.5 5.8 51.5 5.8H51.4C51.4 5.8 51.3 5.9 51.2 5.9H51V5.8H50.9L50.8 5.9C50.8 5.9 50.8 5.9 50.7 6C50.6 6 50.7 6.1 50.6 6C50.5 6 50.5 6 50.5 6C50.5 5.9 50.5 5.8 50.5 5.7H50.6C50.6 5.7 50.6 5.7 50.7 5.7C50.7 5.7 50.7 5.7 50.6 5.7V5.6V5.5V5.6C50.6 5.6 50.5 5.6 50.5 5.7H50.4C50.4 5.7 50.4 5.7 50.3 5.7C50.3 5.7 50.3 5.7 50.3 5.6C50.3 5.6 50.3 5.6 50.3 5.5C50.3 5.5 50.3 5.5 50.4 5.4V5.3C50.4 5.3 50.4 5.2 50.3 5.2H50.2C50.2 5.2 50.2 5.2 50.1 5.2C50.1 5.2 50.1 5.2 50.1 5.1V5H50H50.1C50.1 5 50.1 4.9 50 5C50 5 50.1 4.9 50 4.9C49.9 4.9 49.8 5 49.8 5H49.7C49.7 5 49.7 5 49.7 4.9C49.7 4.9 49.7 4.9 49.7 4.8V4.7C49.7 4.7 49.7 4.7 49.6 4.7C49.6 4.7 49.6 4.7 49.5 4.7C49.5 4.7 49.5 4.7 49.5 4.6C49.5 4.6 49.5 4.6 49.5 4.5V4.4C49.5 4.4 49.5 4.4 49.6 4.3L49.7 4.2V4.1V4C49.7 4 49.7 4 49.8 3.9V3.8H49.7H49.6L49.4 3.7C49.5 3.7 49.5 3.7 49.5 3.6C49.5 3.6 49.5 3.6 49.4 3.6H49.3H49.2L49.3 3.5L49.2 3.4C49.2 3.4 49.2 3.4 49.2 3.3V3.2V3.1C49.1 3.1 49.1 3.1 49.1 3.1C49 3.1 49 3.2 49 3.1L49.1 2.9C49 3 49 3 49 3C49 3 49 3 49.1 3L49.2 2.9C49.2 2.9 49.2 2.9 49.3 2.9C49.1 2.9 48.9 2.8 48.7 2.8C46.7 2.4 44.6 2.2 42.5 2.2C42.2 2.2 42 2.2 41.7 2.2L41.6 2.3C41.6 2.4 41.5 2.4 41.4 2.4L41.3 2.3H41.2C41.2 2.3 41.1 2.3 41.1 2.2C41 2.2 41 2.2 40.9 2.2C40.9 2.2 40.9 2.2 40.8 2.2C40.4 2.2 39.9 2.3 39.5 2.3V2.4V2.6C39.5 2.6 39.6 2.6 39.7 2.6C39.8 2.6 39.7 2.6 39.8 2.7V2.8C39.8 2.8 39.8 2.8 39.9 2.8L40 2.7C40.1 2.7 40 2.8 40 2.8C40 2.8 40 2.9 40.1 2.9C40.1 2.9 40.2 3 40.3 3C40.4 3 40.3 3.1 40.3 3.2C40.3 3.2 40.3 3.3 40.2 3.3V3.4C40.2 3.4 40.2 3.5 40.3 3.5C40.3 3.5 40.3 3.6 40.4 3.6C40.5 3.6 40.4 3.7 40.4 3.7C40.4 3.8 40.4 3.7 40.4 3.8V3.9V4V4.2C40.4 4.2 40.4 4.3 40.4 4.4H40.3C40.3 4.4 40.2 4.4 40.2 4.5V4.6V4.7C40.2 4.7 40.2 4.8 40.1 4.9L40 4.8L39.9 4.9V5L40 5.1V5.2V5.3V4.9C40 4.9 40 4.9 40 4.8H39.9L39.8 4.7V4.6H39.7H39.6V4.5C39.6 4.3 39.6 4.5 39.4 4.5C39.3 4.5 39.3 4.5 39.2 4.5C39.2 4.5 39.1 4.4 39.1 4.3C39.1 4.2 39 4.3 39 4.3L38.8 4.2C38.8 4.2 38.5 4.1 38.5 4C38.5 3.9 38.4 4 38.4 3.9C38.4 3.9 38.3 3.9 38.3 3.8H38.2H38.1L38 3.9V4V4.1C38 4.1 38 4.2 38.1 4.2C38.2 4.3 38.1 4.2 38.2 4.3C38.3 4.3 38.2 4.4 38.2 4.4C38.2 4.4 38.2 4.5 38.6 4.6C38.9 4.7 38.7 4.7 38.7 4.7C38.8 4.7 38.8 4.8 38.8 4.8C38.8 4.8 39.1 5 39.2 5.1C39.3 5.2 39.2 5.1 39.3 5.2V5.3C39.3 5.3 39.3 5.3 39.3 5.4C39.3 5.5 39.3 5.5 39.3 5.5H39.2H39.1H39C39 5.5 38.9 5.4 38.8 5.4C38.8 5.3 38.7 5.4 38.6 5.4C38.5 5.4 38.5 5.4 38.5 5.3C38.5 5.3 38.4 5.3 38.3 5.3C38.3 5.3 38.3 5.3 38.2 5.3H38.1H38H37.8C37.7 5.3 37.7 5.3 37.7 5.2C37.7 5.1 37.7 5.2 37.6 5.1H37.5C37.5 5.1 37.4 5.1 37.4 5C37.4 5 37.3 5 37.2 4.9C37.1 4.8 37.1 4.9 37.1 4.9H37L36.9 5C36.9 5 36.9 5 36.8 5.1H36.6C36.6 5 36.5 5.1 36.6 5C36.6 4.9 36.5 4.9 36.5 4.9C36.5 4.9 36.5 4.9 36.6 4.8C36.7 4.7 36.5 4.7 36.5 4.7C36.5 4.7 36.5 4.6 36.4 4.6H36.3C36.3 4.6 36.2 4.6 36.1 4.5L36 4.4C36 4.4 36 4.4 36.1 4.3C36.2 4.2 36.2 4.3 36.3 4.3C36.4 4.3 36.4 4.3 36.5 4.2C36.6 4.1 36.5 4.2 36.4 4.1C36.4 4 36.3 4.1 36.3 4.1H36.1C36.1 4.1 36 4.1 35.9 4.1C35.9 4.1 35.8 4.2 35.7 4.2C35.7 4.2 35.6 4.2 35.7 4.1C35.7 4.1 35.8 4.1 35.8 3.9C35.8 3.9 35.7 3.9 35.6 3.9C35.5 3.9 35.5 3.9 35.5 3.8C35.5 3.7 35.7 3.8 35.7 3.7H35.6C35.6 3.7 35.5 3.7 35.4 3.6C35.3 3.5 35.4 3.6 35.4 3.5C35.4 3.4 35.4 3.4 35.4 3.4C35.4 3.4 35.3 3.4 35.2 3.4H35.1C35.1 3.4 35.1 3.4 35.1 3.5C35.1 3.5 35 3.7 35 3.6C35 3.6 34.9 3.5 35 3.4C35 3.3 35 3.4 35 3.3C35 3.2 35 3.2 35 3.2C34.9 3.2 34.8 3.2 34.8 3.3C34.9 3.3 34.8 3.4 34.8 3.4L34.7 3.5C34.7 3.5 34.6 3.5 34.5 3.5H34.4H34.3L34.2 3.4H34.1C34.1 3.4 34 3.4 34 3.5L33.9 3.6L33.8 3.7C33.8 3.7 33.8 3.7 33.5 3.8C33.2 3.8 33.4 3.8 33.4 3.8H33.3C33.3 3.8 33.2 3.9 33.1 3.9C33 3.9 33 3.9 33 3.9C33 3.9 33 3.9 33 3.8C32.4 4 31.7 4.2 31.1 4.4C31.1 4.6 31.1 4.5 31 4.6C30.8 4.7 30.8 4.8 30.6 4.7C30.6 4.7 30.4 4.7 30.3 4.6C27.1 5.8 24.1 7.4 21.5 9.5C21.6 9.5 21.6 9.4 21.7 9.4C21.7 9.4 21.8 9.4 21.9 9.4C22 9.4 22 9.4 22.2 9.5C22.4 9.6 22.2 9.5 22.2 9.6C22.2 9.7 22.2 9.7 22.2 9.8C22.3 9.9 22.2 10 22.2 10C22.2 10.1 22.2 10.1 22.3 10.2C22.4 10.3 22.4 10.3 22.4 10.4C22.4 10.4 22.4 10.5 22.2 10.6C22.1 10.7 22.1 10.7 22.1 10.7C22.1 10.8 22.2 10.7 22.3 10.7C22.4 10.7 22.5 10.7 22.6 10.6C22.7 10.6 22.8 10.5 22.9 10.5C23 10.4 23 10.5 23.4 10.4C23.8 10.3 23.5 10.4 23.6 10.4C23.7 10.4 23.7 10.4 23.7 10.5C23.8 10.5 23.7 10.6 23.8 10.7C23.9 10.7 23.9 10.7 24 10.7C24.1 10.7 24.1 10.8 24.2 10.7C24.3 10.7 24.3 10.8 24.4 10.8H24.5C24.5 10.8 24.6 10.8 24.7 10.9C24.7 10.9 24.8 11 24.9 11C24.9 11.1 24.9 11.1 25.1 11.1C25.3 11.2 25.1 11.2 25.2 11.4C25.2 11.5 25.3 11.4 25.4 11.4C25.5 11.4 25.5 11.4 25.8 11.5C26.1 11.6 25.9 11.6 26 11.7C26 11.7 26 11.7 26.2 11.7C26.4 11.7 26.3 11.8 26.4 12C26.6 11.9 26.4 12 26.6 11.9C26.8 11.8 26.7 11.9 26.9 11.8C27 11.8 27.1 11.8 27.2 11.8C27.3 11.8 27.2 11.9 27.3 11.9C27.4 11.9 27.5 11.9 27.7 11.9C27.8 11.9 27.9 11.9 28 11.8C28.1 11.8 28.2 11.8 28.3 11.9C28.4 12 28.3 11.9 28.3 12C28.3 12 28.3 12 28.3 12.1C28.5 12.4 28.3 12.2 28.3 12.3C28.3 12.4 28.2 12.4 28.2 12.5L28.1 12.7C28.1 12.8 28.2 12.8 28.2 12.8C28.2 12.9 28.2 12.9 28.2 12.9C28.2 12.9 28.2 13.1 28.3 13.2C28.4 13.3 28.3 13.3 28.3 13.4C28.3 13.5 28.3 13.5 28.2 13.6C28.2 13.7 28.1 13.7 28.1 13.7C28.1 13.7 28.1 13.8 28.2 13.8C28.2 13.9 28.2 13.9 28.3 13.9C28.4 13.9 28.3 14 28.4 14C28.5 14 28.4 14.1 28.6 14.2C28.7 14.3 28.6 14.2 28.6 14.2C28.6 14.2 28.5 14.3 28.4 14.4C28.2 14.6 28.4 14.4 28.6 14.4C28.7 14.4 28.7 14.5 28.8 14.6C29 14.7 28.8 14.7 28.9 14.7C29 14.7 29 14.8 29.1 14.8C29.2 14.8 29.1 14.9 29.1 15C29.1 15.1 29.1 15 29 15.1C29 15.1 29 15.2 28.9 15.2C28.8 15.3 28.8 15.3 28.8 15.3C28.9 15.2 28.9 15.2 29.2 15.1C29.3 15.1 29.4 15 29.5 15.1C29.6 15.2 29.8 15.5 29.7 15.3C29.7 15.2 29.6 15.2 29.6 15.1C29.6 15 29.6 15 29.7 14.9C29.8 14.8 29.8 14.8 29.9 14.9C29.9 14.9 30 15 30.1 15C30.1 15.1 30.3 14.9 30.3 14.8C30.3 14.7 30.3 14.7 30.2 14.6C30.2 14.6 30.2 14.5 30.3 14.5C30.4 14.4 30.4 14.4 30.4 14.3C30.5 14.3 30.5 14.3 30.6 14.2C30.6 14.1 30.5 14.1 30.6 14C30.6 13.9 30.5 14 30.4 13.9C30.4 13.8 30.3 13.7 30.4 13.5C30.4 13.3 30.4 13.3 30.4 13.2C30.5 13.1 30.4 13.1 30.5 13C30 13 29.9 13 29.8 13C29.8 12.9 29.8 12.9 29.8 12.8C29.8 12.6 29.8 12.7 29.8 12.6C29.8 12.6 29.6 12.4 29.6 12.3C29.6 12.2 29.6 12.2 29.8 12.1C29.9 12 29.9 12.2 30 12.1C30.1 12.1 30.3 12.1 30.3 12.1C30.4 12.1 30.5 12 30.6 12C30.7 12 30.6 12 30.7 11.9C30.8 11.8 30.9 11.7 31 11.7C31.1 11.6 31.2 11.6 31.4 11.5C31.6 11.4 31.6 11.3 31.6 11.2L31.7 11C31.7 11 31.7 10.9 31.7 10.8C31.7 10.7 31.8 10.5 31.8 10.5C32 10.2 31.9 10.3 31.9 10.1C31.9 10 31.9 10 31.9 10C31.9 9.9 31.9 9.9 31.9 9.8C31.9 9.7 31.8 9.6 31.8 9.5C31.8 9.4 31.7 9.4 31.7 9.3C31.7 9.2 31.5 9.3 31.3 9.1C31.2 9 30.9 9 30.8 8.9C30.7 8.9 30.9 8.7 31 8.6C31.1 8.5 31.1 8.4 31.1 8.4C31.1 8.4 31.2 8.4 31.4 8.2C31.5 8.1 31.5 8.1 31.6 7.9C31.6 7.8 31.8 7.8 31.9 7.8C32 7.8 31.9 7.6 31.9 7.5C31.9 7.4 31.8 7.4 31.8 7.3C31.8 7.2 31.8 7.2 31.8 7.1C31.8 7 31.7 6.9 31.7 6.8C31.7 6.7 31.7 6.7 31.7 6.6C31.7 6.5 31.8 6.5 31.8 6.4C31.9 6.3 31.8 6.2 31.9 6C32 5.8 31.9 6 31.9 5.9C31.9 5.8 31.8 5.8 31.9 5.6C31.9 5.4 31.8 5.5 31.8 5.3C31.8 5.1 31.8 5.2 31.9 5.1C32 5 32.1 5 32.2 4.9C32.3 4.8 32.4 4.8 32.5 4.8C32.6 4.8 32.6 4.9 32.7 4.9C32.7 4.9 32.8 5 33.1 4.8C33.4 4.7 33.2 4.9 33.3 4.9C33.4 4.9 33.3 5 33.3 5.1C33.3 5.2 33.3 5.2 33.5 5.1C33.6 5 33.5 5.1 33.6 5.1C33.7 5.1 33.7 5.1 33.8 5.1C33.9 5.1 33.9 5.2 33.9 5.2C34 5.3 33.9 5.2 34 5.1C34.1 5 34.1 5 34.2 5C34.3 5 34.4 4.9 34.6 5C34.6 5 34.6 4.9 34.8 4.9C35.1 4.9 34.9 5 35 5.1C35.1 5.1 35.1 5.2 35.1 5.3C35.1 5.3 35.1 5.5 35.1 5.4C35.1 5.4 35.3 5.4 35.4 5.4C35.5 5.4 35.5 5.5 35.5 5.5C35.6 5.5 35.5 5.6 35.5 5.7L35.6 5.9C35.7 5.9 35.8 5.9 35.9 6H36C36 6 36.2 5.9 36.3 5.9C36.3 5.9 36.2 6 36.4 6C36.6 6 36.6 5.9 36.6 5.9C36.7 5.9 36.7 5.9 36.8 6C36.8 6 36.8 6.1 36.5 6.4C36.3 6.7 36.5 6.6 36.4 6.6C36.4 6.7 36.4 6.7 36.4 6.8C36.4 7 36.3 7 36.3 7C36.3 7 36.3 7.1 36.3 7.2C36.3 7.3 36.4 7.3 36.4 7.6C36.4 7.9 36.4 7.5 36.5 7.7C36.5 7.8 36.5 7.8 36.5 7.8C36.5 7.9 36.4 7.8 36.4 7.9C36.3 7.9 36.3 7.9 36.2 7.9C36.1 7.9 36.1 8.1 36.3 8.2C36.5 8.3 36.3 8.2 36.5 8.1C36.5 8.1 36.9 7.9 37 7.9C37.2 7.9 37 7.9 37.1 8C37.2 8.1 37.1 8.3 37.1 8.3C37.1 8.3 37.1 8.4 36.9 8.5C36.8 8.6 36.9 8.7 37 8.6C37.1 8.5 37 8.6 37.2 8.4C37.4 8.2 37.3 8.3 37.4 8.4C37.5 8.4 37.3 8.7 37.5 8.5C37.6 8.4 37.5 8.5 37.7 8.4C37.8 8.4 37.9 8.4 37.9 8.3C37.9 8.3 37.9 8.3 38 8.2C38.1 8.1 38 8.2 38.2 8.1C38.4 8 38.2 8.1 38.3 8C38.4 7.9 38.4 8.2 38.5 8.2C38.6 8.2 38.5 8 38.8 7.8C39.1 7.6 38.8 7.7 38.7 7.7C38.7 7.6 38.8 7.6 38.8 7.4C38.8 7.2 38.9 7.4 39 7.3C39.1 7.2 39 7.2 39 7.1C39 7 38.9 7 39 6.9C39 6.8 39.2 6.9 39.3 6.7C39.4 6.5 39.3 6.7 39.4 6.6C39.5 6.5 39.4 6.5 39.7 6.2C39.8 6.1 39.7 6.3 39.7 6.4C39.7 6.5 39.7 6.6 39.8 6.6C39.9 6.6 39.8 6.8 39.9 6.9C40 7 40 7 40.1 7V7.1C40.1 7.2 39.9 6.9 40.1 7.2C40.4 7.9 40.4 8 40.4 8C40.4 8 40.4 8 40.5 8C40.5 8 40.4 8.3 40.5 8.4C40.6 8.5 40.6 8.4 40.7 8.4C40.8 8.4 40.7 8.5 40.8 8.6C40.9 8.7 40.8 8.8 40.8 8.8C40.9 8.8 40.9 8.9 41 8.9C41.1 9 41.1 9 41.2 9.1C41.3 9.2 41.1 9.2 41.1 9.2C41.1 9.2 41 9.3 41.1 9.4C41.2 9.5 41.2 9.6 41.3 9.6C41.4 9.6 41.3 9.9 41.4 9.9C41.5 9.9 41.3 10.1 41.3 10.1C41.3 10.1 41.2 10.1 41 10.2C40.8 10.2 41 10.3 41 10.3C41 10.3 41 10.4 41.1 10.4C41.2 10.4 41.2 10.5 41.2 10.5C41.3 10.5 41.2 10.7 41.3 10.7C41.4 10.7 41.4 10.9 41.4 10.9C41.5 10.9 41.3 10.8 41.5 10.8C41.7 10.8 41.5 10.8 41.6 10.8C41.7 10.8 41.6 10.8 41.7 10.9C41.8 11 41.8 11.1 41.8 11.1V11.4H41.9C42 11.4 42.1 11.4 42.1 11.5L42 11.7C42 11.7 42.1 11.7 42.2 11.6C42.3 11.5 42.3 11.5 42.4 11.4C42.5 11.3 42.5 11.5 42.6 11.5C42.6 11.5 42.6 11.6 42.6 11.7C42.7 11.8 42.7 11.7 42.8 11.7C42.9 11.6 43 11.6 43.2 11.6C43.3 11.6 43.2 11.7 43.3 11.9L43.6 12C43.5 12 43.5 12.1 43.4 12.1C43.3 12.1 43.2 12.2 43.2 12.2C43.2 12.2 43 12.2 42.9 12.3C42.9 12.3 42.6 12.4 42.6 12.3C42.6 12.3 42.5 12.3 42.4 12.4C42.4 12.5 42.3 12.5 42.3 12.5C42.3 12.5 42.1 12.6 42.1 12.7C42.1 12.8 41.7 12.7 41.7 12.8C41.6 12.8 41.6 12.9 41.7 13C41.8 13.1 41.9 13.1 41.9 13.1C41.9 13.1 42.2 13 42.3 12.9C42.5 12.8 42.5 12.8 42.5 12.8C42.6 12.8 42.6 12.7 42.7 12.7C42.7 12.7 42.9 12.6 43 12.5C43.1 12.5 43.3 12.4 43.4 12.4C43.5 12.4 43.6 12.4 43.6 12.6C43.6 12.8 43.5 13 43.6 12.9C43.7 12.9 43.7 12.8 43.7 12.7C43.7 12.7 43.8 12.5 43.9 12.6C44 12.6 44.2 12.6 44.3 12.7C44.4 12.7 44.6 12.8 44.7 12.9C44.8 13 44.7 13 44.6 13.1C44.6 13.2 44.7 13.2 44.7 13.4C44.7 13.5 44.5 13.6 44.5 13.7C44.5 13.8 44.5 13.8 44.6 13.9C44.7 14 44.7 14 44.8 14.1C44.8 14.2 44.7 14.2 44.7 14.3C44.6 14.4 44.5 14.4 44.4 14.5L44 14.6C44 14.6 43.8 14.6 43.7 14.7C43.6 14.8 43.4 14.8 43.3 14.8C43.2 14.8 43.1 14.8 43 14.9C43 14.9 42.8 15.1 42.7 15.2C42.7 15.3 42.3 15.4 42.2 15.5C42.1 15.6 42 15.6 41.9 15.6C41.9 15.6 41.5 15.8 41.4 15.8C41.3 15.8 41.1 15.9 41.1 15.9C40.9 15.9 40.7 15.9 40.6 15.9L40.5 15.8C40.5 15.8 40.1 15.9 40.1 15.8C40 15.8 39.9 15.8 39.9 15.8C39.9 15.8 39.9 15.8 39.8 15.7L39.7 15.6C39.7 15.6 39.4 15.7 39.3 15.7C39.2 15.7 39.1 15.7 39.1 15.7C39 15.7 38.3 15.7 38.3 15.7C38.2 15.7 38.2 15.7 38.1 15.8C38.1 15.8 37.8 15.9 37.7 16L37.4 16.3C37.3 16.4 37.3 16.4 37.2 16.5C37.2 16.5 36.9 16.6 36.9 16.7H36.7H36.6C36.6 16.7 36 16.7 36 16.8C36 16.8 35.8 17 35.8 17.1C35.8 17.2 35.6 17.2 35.5 17.3C35.4 17.3 35.4 17.4 35.4 17.4C35.3 17.5 35.3 17.5 35.2 17.6C35.1 17.7 35 17.8 34.9 17.8C34.8 17.8 34.5 18 34.5 18C34.5 18 34.3 18.4 34.3 18.3C34.3 18.3 34.5 18.2 34.8 17.9C35.1 17.6 34.9 17.8 35 17.7C35.1 17.6 35.3 17.4 35.5 17.3C35.7 17.2 35.6 17.2 35.8 17.1C35.9 17 36.1 16.9 36.2 16.9C36.3 16.8 36.3 16.9 36.5 16.8C36.7 16.7 36.7 16.7 36.8 16.7C36.9 16.7 36.9 16.6 37.1 16.6C37.2 16.5 37.2 16.6 37.3 16.5L37.7 16.4C37.8 16.4 37.9 16.4 37.9 16.4C37.9 16.4 38.2 16.4 38.3 16.5C38.4 16.6 38.4 16.6 38.5 16.7C38.5 16.8 38.7 16.8 38.7 16.9C38.7 17 38.5 17.1 38.4 17.2C38.3 17.3 38.2 17.3 38.1 17.4C38 17.5 37.5 17.5 37.5 17.5L37.6 17.6L37.7 17.7C37.7 17.8 38.1 17.6 38.1 17.6C38.2 17.6 38.2 17.7 38.2 17.8C38.2 17.9 37.9 18.1 37.9 18.1C37.9 18.1 38 18.2 38 18.3C38 18.3 38.1 18.5 38.2 18.5V18.6C38.2 18.6 38.2 18.7 38.2 18.8L38.3 18.9C38.3 18.9 38.4 18.9 38.5 19C38.5 19 38.6 19.2 38.7 19.2C38.8 19.2 38.9 19.2 39 19.2C39 19.2 39 19.4 39.2 19.4C39.3 19.4 39.5 19.3 39.6 19.3C39.7 19.3 39.7 19.5 39.8 19.4C39.8 19.3 39.9 19.3 40.1 19.2C40.3 19.1 40.3 19.2 40.4 19.2C40.5 19.2 40.4 19.3 40.4 19.4C40.4 19.5 40.6 19.6 40.6 19.6C40.5 19.6 40.4 19.6 40.4 19.6C40.4 19.6 40.2 19.7 40.2 19.8C40.2 19.9 39.8 20 39.7 20C39.6 20 39.3 20.1 39.2 20.1C39.1 20.1 38.8 20.2 38.7 20.2C38.6 20.2 38.4 20.3 38.4 20.3C38.3 20.3 38.3 20.4 38.2 20.5C38.2 20.6 37.9 20.8 37.8 20.8C37.7 20.9 37.5 20.9 37.4 20.9C37.3 20.9 37.2 20.8 37.1 20.9C37 20.9 37 20.8 37.1 20.7C37.1 20.6 37 20.6 37.1 20.5C37.2 20.4 37.2 20.3 37.4 20.2C37.5 20.1 37.6 20 37.8 19.9C38 19.8 37.9 19.9 38 19.9C38.1 19.9 38 20 38.4 19.8C38.8 19.6 38.5 19.8 38.7 19.8C38.9 19.8 38.8 19.7 38.8 19.7C38.8 19.6 38.7 19.6 38.7 19.6C38.6 19.6 38.5 19.6 38.4 19.7C38.3 19.7 38.3 19.7 38.3 19.6C38.3 19.6 38.3 19.4 38.3 19.5C38.2 19.5 38.3 19.5 38.2 19.5C38.1 19.5 38.1 19.6 38.1 19.7C38 19.7 37.9 19.8 37.8 19.8C37.7 19.8 37.5 19.9 37.5 19.9L37.3 19.8C37.3 19.8 37.3 19.8 37.1 20C37 20.1 36.9 20 36.7 20C36.8 20 36.8 20 36.7 20.2C36.7 20.3 36.5 20.3 36.5 20.2L36.4 20.3L36.3 20.4C36.2 20.4 36 20.5 35.9 20.5C35.9 20.5 35.7 20.5 35.6 20.5C35.6 20.5 35.4 20.5 35.3 20.6L35.2 20.8C35.2 20.9 35 20.8 34.9 20.9C34.8 20.9 35 20.8 34.7 20.9C34.4 21 34.7 21 34.5 21.1C34.4 21.2 34.4 21.3 34.2 21.4C34.1 21.5 34 21.6 34 21.7C34 21.9 34 21.8 33.9 22C33.8 22.2 33.9 22 34 22.1C34.1 22.2 34 22.2 34 22.3C34.1 22.4 34.1 22.4 34.1 22.5C34.1 22.6 33.9 22.6 33.9 22.7C33.8 22.8 33.7 22.7 33.7 22.7C33.7 22.7 33.6 22.9 33.5 22.9C33.4 23 33.5 22.9 33.4 22.9C33.3 22.9 33.2 22.8 32.9 23C32.6 23.2 32.8 23 32.7 23C32.6 23 32.5 23 32.4 23C32.3 23 32.3 23.1 32.2 23.1C32.1 23.1 32.1 23.2 32.1 23.2C32 23.3 32 23.3 31.9 23.4C31.9 23.3 31.9 23.2 32 23.1C32 23.1 31.9 23.1 31.8 23.2C31.8 23.2 31.7 23.3 31.7 23.4C31.7 23.5 31.9 23.5 31.9 23.5C31.9 23.6 31.8 23.7 31.8 23.8C31.8 23.9 31.7 23.9 31.7 24C31.7 24.1 31.4 24.3 31.3 24.4C31.2 24.5 31.2 24.4 31.2 24.4C31.2 24.4 31.1 24.4 31 24.4C30.9 24.4 30.9 24.3 30.8 24.3C30.8 24.3 30.8 24.4 30.8 24.5C30.8 24.7 30.9 24.6 30.8 24.6C30.8 24.7 30.9 24.7 30.9 24.8C30.9 24.9 30.8 25 30.8 25C30.8 25 30.8 25.1 30.7 25.1C30.6 25.2 30.6 25.2 30.6 25.3C30.6 25.4 30.5 25.5 30.3 25.4C30.2 25.3 30.4 25.2 30.4 25.1C30.4 25 30.3 25 30.2 24.9C30.1 24.8 30.2 24.9 30.2 24.7C30.2 24.5 30.4 24.2 30.3 24.2C30.2 24.2 30.3 24.4 30 24.8C29.8 25.2 29.9 24.8 29.8 24.9C29.7 24.9 29.8 25 29.8 25.3C29.8 25.4 29.9 25.5 29.9 25.5C29.9 25.5 30 25.6 30 25.7C30 25.8 29.9 25.7 29.8 25.7C29.7 25.7 29.8 25.8 30 25.8C30.1 25.9 30.1 25.9 30.2 25.9C30.3 25.9 30.3 26 30.3 26C30.3 26.1 30.3 26.1 30.3 26.3C30.3 26.4 30.2 26.4 30.2 26.4C30.2 26.4 30.2 26.5 30.2 26.6C30.2 26.7 30.3 26.6 30.5 26.7C30.5 26.7 30.5 26.8 30.5 26.9C30.5 27 30.3 27 30.2 27.1C30.1 27.1 30.1 27.1 30 27.1C29.8 27.1 30 27.2 29.9 27.2C29.8 27.3 29.9 27.3 30.2 27.4C30.2 27.4 30.1 27.5 30 27.6C29.9 27.7 29.9 27.6 29.9 27.6C29.9 27.6 29.7 27.7 29.6 27.8C29.6 27.9 29.5 27.9 29.3 28.1C29.1 28.4 29.2 28.2 29.1 28.2C29 28.2 28.9 28.2 28.8 28.2C28.6 28.1 28.7 28.2 28.6 28.3C28.5 28.4 28.5 28.5 28.4 28.5C28.3 28.6 28.3 28.6 28.2 28.7C28.1 28.8 28.1 28.8 27.9 28.9C27.8 29 27.6 29.1 27.4 29.3C27.2 29.5 27.3 29.4 27.2 29.5C27.2 29.6 27.1 29.7 27 29.8C26.9 29.9 27 29.9 27 30.1C27 30.3 27.1 30.2 27 30.3C26.9 30.5 27 30.4 27 30.5C27 30.6 27 30.6 27.1 30.8C27.1 31 27.3 31 27.3 31C27.3 31.1 27.4 31.1 27.5 31.2C27.5 31.3 27.5 31.3 27.4 31.4C27.3 31.5 27.4 31.5 27.5 31.8C27.6 32.1 27.5 31.8 27.5 31.9C27.5 32 27.5 32.1 27.6 32.1C27.7 32.2 27.6 32.2 27.7 32.3C27.8 32.4 27.8 32.4 27.8 32.4C27.8 32.5 27.8 32.5 27.8 32.5C27.8 32.6 27.8 32.6 27.8 32.8C27.8 33 27.8 33 27.9 33C28 33 27.9 33.2 27.9 33.2C27.9 33.2 27.8 33.3 27.8 33.4C27.8 33.5 27.7 33.6 27.7 33.6C27.6 33.7 27.6 33.7 27.5 33.8C27.5 33.7 27.4 33.7 27.3 33.7C27.3 33.7 27.2 33.7 27.2 33.6C27.2 33.6 27.1 33.4 27.1 33.3C27.1 33.2 27 33.2 26.9 33.2C26.8 33.2 26.8 33.2 26.8 33.2C26.7 33.1 26.7 33.1 26.6 33C26.5 33.1 26.6 32.9 26.6 32.8C26.6 32.7 26.5 32.6 26.5 32.6L26.4 32.5C26.4 32.5 26.3 32.3 26.2 32.3C26.1 32.3 26.2 32.2 26 32C26 32 26 31.9 26 31.8C26 31.7 26 31.6 26.1 31.4V31.3L26 31.1C26 31.1 25.9 31 25.9 30.9C25.9 30.8 25.8 30.8 25.7 30.8C25.7 30.7 25.6 30.7 25.5 30.6C25.4 30.6 25.4 30.6 25.4 30.5C25.3 30.4 25.4 30.4 25.2 30.5L25 30.6C25 30.6 24.8 30.7 24.6 30.7L24.4 30.6C24.4 30.5 24.2 30.4 24.2 30.4C24.2 30.4 24.2 30.3 24.1 30.3C24 30.3 23.9 30.3 23.8 30.2H23.5H23.3C23.2 30.2 23.2 30.2 23.1 30.3C23.1 30.4 22.9 30.4 22.8 30.2C22.8 30.1 22.7 30.3 22.7 30.3C22.7 30.4 22.6 30.4 22.6 30.4C22.6 30.4 22.3 30.3 22.2 30.3C22.1 30.2 22.1 30.3 22 30.3C21.9 30.3 21.9 30.3 21.8 30.3C21.7 30.3 21.6 30.3 21.5 30.3C21.4 30.3 21.5 30.2 21.2 30.4C21.1 30.5 21.4 30.4 21.5 30.5C21.6 30.5 21.6 30.6 21.6 30.6C21.6 30.6 21.7 30.6 21.7 30.7V30.8C21.7 30.9 21.8 31 21.8 31C21.9 31 21.8 31.1 21.7 31.2C21.6 31.3 21.6 31.2 21.5 31.1C21.5 31 21.3 31 21.3 31C21.4 31 21.2 31.2 21 31.2C20.8 31.2 21 31.1 21 31.1C21 31.1 21 31.1 20.9 31.1C20.8 31.1 20.9 31.1 20.8 31.2C20.7 31.3 20.7 31.2 20.6 31.2C20.5 31.1 20.6 31.1 20.5 31C20.4 30.9 20.4 31 20.3 30.9C20.2 30.9 20.2 30.8 19.9 30.8C19.8 30.8 19.8 30.8 19.7 30.8C19.7 30.8 19.6 30.8 19.4 30.8C19.2 30.7 19.3 30.8 19.2 30.7C19.1 30.6 19.1 30.6 19 30.6C18.9 30.6 18.7 30.7 18.5 30.8C18.5 30.8 18.4 30.8 18.2 30.8C18.1 30.8 18 30.8 18 30.9C18 31 18 30.9 18 31C18 31.1 17.9 31.1 17.8 31.2C17.7 31.3 17.7 31.3 17.7 31.3C17.7 31.3 17.4 31.4 17.3 31.4C17.2 31.4 17.2 31.4 17.1 31.4C17 31.4 17 31.5 17 31.5C17 31.5 16.9 31.5 16.8 31.5C16.7 31.5 16.8 31.7 16.6 31.8C16.6 31.8 16.5 31.9 16.4 31.9C16.3 32 16.3 32.1 16.3 32.2C16.3 32.3 16.4 32.3 16.5 32.4C16.6 32.5 16.6 32.6 16.6 32.7C16.6 32.9 16.6 32.8 16.6 33C16.6 33.1 16.6 33.1 16.6 33.2C16.6 33.3 16.6 33.3 16.6 33.4C16.6 33.5 16.4 33.7 16.3 33.7C16.3 33.7 16.4 34.1 16.5 34.2C16.5 34.3 16.3 34.4 16.3 34.4C16.3 34.4 16.3 34.5 16.4 34.6C16.4 34.7 16.5 34.8 16.4 34.9C16.4 35 16.4 35 16.3 35.1C16.3 35.2 16.3 35.4 16.3 35.6C16.3 35.8 16.4 35.8 16.5 35.9C16.6 36 16.6 35.8 16.8 36.3C17.1 36.8 16.8 36.3 16.9 36.5C17 36.7 17.1 36.7 17.2 36.8C17.3 36.9 17.3 37 17.4 37C17.5 37 17.5 37.3 17.6 37.3C17.7 37.3 17.8 37.6 17.8 37.6C17.8 37.6 17.8 37.7 18 37.7C18 37.7 18.1 37.7 18.3 37.8C18.5 37.8 18.3 37.8 18.4 37.8C18.5 37.8 18.5 37.9 18.6 38C18.7 38 18.7 38.1 18.8 38.2C18.9 38.2 18.9 38.2 19.1 38.1C19.2 38 19.1 38.1 19.3 38C19.5 37.9 19.4 38 19.5 38C19.6 38 19.7 38 19.8 38C20 38 20 38 20 38C20 38 20.2 37.9 20.3 37.8C20.5 37.7 20.4 37.9 20.4 37.8C20.5 37.8 20.5 37.9 20.7 37.8C20.8 37.8 20.7 37.7 20.8 37.7C20.9 37.7 20.9 37.6 21 37.5C21.1 37.4 21 37.4 21 37.3C21 37.2 21 37.2 21.1 37.2C21.2 37.1 21.1 37.1 21.1 36.7C21.1 36.2 21.1 36.6 21.3 36.4C21.5 36.2 21.3 36.4 21.4 36.3C21.5 36.2 21.5 36.3 21.7 36.3C21.7 36.3 22 36.3 22.2 36.1C22.3 36 22.3 36.1 22.4 36.1C22.5 36.1 22.8 36.2 22.9 36.2C23 36.2 23 36.2 23.1 36.1C23.3 36 23.2 36.1 23.4 36.1C23.5 36.1 23.5 36.2 23.6 36.3C23.7 36.4 23.6 36.4 23.5 36.5C23.4 36.7 23.4 36.6 23.2 36.8C23 37 23.1 36.9 23 37C22.9 37.1 23 37.2 23 37.3C23 37.5 23 37.4 23 37.5C23 37.6 23 37.6 22.9 37.7C22.9 37.8 22.9 37.9 22.9 37.9L22.8 38.1C22.8 38 22.7 37.8 22.7 37.7C22.7 37.6 22.6 37.7 22.6 37.7C22.5 37.8 22.6 37.9 22.7 37.9C22.7 37.9 22.8 38 22.8 38.1C22.8 38.1 22.8 38.2 22.7 38.2C22.5 38.2 22.7 38.3 22.7 38.4C22.7 38.5 22.7 38.7 22.7 38.8C22.7 38.9 22.7 38.9 22.7 39C22.7 39.1 22.6 39.1 22.6 39.2C22.6 39.2 22.4 39.3 22.4 39.5C22.4 39.7 22.6 39.6 22.7 39.5C22.8 39.4 22.8 39.5 22.9 39.5H23C23.2 39.4 23.1 39.5 23.3 39.5C23.5 39.5 23.4 39.6 23.6 39.5C23.8 39.5 23.8 39.6 24 39.6C24.2 39.6 24.1 39.5 24.3 39.5C24.4 39.5 24.7 39.5 24.8 39.4C24.9 39.4 25 39.5 25.1 39.5C25.2 39.5 25.2 39.6 25.2 39.6C25.2 39.6 25.6 39.7 25.7 39.9C25.7 39.9 25.8 40 25.9 40.1C26 40.2 26 40.2 26.1 40.2C26.2 40.3 26.2 40.3 26.2 40.4C26.2 40.5 26.1 40.7 26.1 40.7C26.1 40.7 26 40.9 26 41.1C26 41.3 26 41.2 25.9 41.3C25.9 41.4 25.9 41.5 25.9 41.6C25.9 41.7 25.9 41.7 25.9 41.9C25.9 42 25.9 42.1 25.9 42.2C25.9 42.3 25.9 42.4 25.9 42.4C25.9 42.4 25.9 42.5 26.2 42.7C26.2 42.7 26.2 42.7 26.3 42.8C26.3 42.8 26.3 42.9 26.4 43C26.5 43.1 26.5 43.2 26.6 43.3C26.7 43.4 26.7 43.4 26.8 43.5C26.9 43.5 26.9 43.6 26.9 43.7C27 43.8 27.1 43.8 27.2 43.9C27.3 44 27.3 44 27.6 44C27.8 44 27.9 44 27.9 44C28 44 28 44 28.1 44C28.1 44 28.2 44 28.4 44C28.6 43.9 28.6 44 28.7 43.9C28.8 43.8 28.7 43.9 28.7 43.7C28.7 43.5 28.8 43.8 28.9 43.6C29 43.4 29 43.6 29.1 43.6C29.2 43.6 29.2 43.6 29.4 43.7C29.4 43.7 29.4 43.7 29.4 43.6C29.4 43.5 29.4 43.6 29.5 43.5C29.5 43.5 29.6 43.4 29.6 43.3C29.7 43.2 29.7 43.3 29.7 43.3C29.7 43.3 29.7 43.3 29.8 43.3C29.8 43.3 29.8 43.1 29.8 43C29.8 42.9 29.8 43 29.8 42.9L29.9 42.8C29.9 42.8 30 42.8 30.1 42.8C30.2 42.8 30.1 42.9 30.3 42.7C30.4 42.5 30.3 42.7 30.4 42.7C30.5 42.7 30.5 42.7 30.6 42.7C30.7 42.7 30.6 42.7 30.7 42.7C30.8 42.7 30.7 42.7 30.8 42.6C30.9 42.5 30.8 42.6 30.9 42.5C31 42.5 31 42.4 31 42.4L31.1 42.3C31.2 42.3 31.2 42.3 31.3 42.3C31.4 42.3 31.4 42.3 31.5 42.3C31.6 42.3 31.6 42.4 31.6 42.4V42.5H31.5C31.5 42.5 31.4 42.4 31.5 42.5C31.5 42.5 31.5 42.6 31.4 42.6C31.4 42.6 31.3 42.6 31.2 42.6C31.1 42.6 31.2 42.6 31.1 42.7C31.1 42.8 31.2 42.7 31.2 42.8C31.2 42.8 31.3 43.1 31.2 43.2C31.1 43.4 31.2 43.3 31.2 43.4C31.2 43.5 31.3 43.6 31.4 43.6C31.5 43.6 31.5 43.7 31.6 43.6C31.7 43.5 31.6 43.6 31.6 43.4C31.6 43.3 31.6 43.3 31.6 43.2C31.6 43.1 31.4 43.1 31.4 43C31.4 42.9 31.4 42.9 31.4 42.9C31.4 42.9 31.4 42.8 31.5 42.8C31.6 42.8 31.7 42.8 31.7 42.7C31.8 42.6 31.7 42.7 31.7 42.6C31.7 42.6 31.8 42.5 31.8 42.4C31.9 42.3 31.9 42.4 32 42.4C32.1 42.4 32 42.5 32.1 42.5C32.1 42.6 32.1 42.6 32.2 42.6L32.3 42.7C32.4 42.7 32.5 42.7 32.6 42.7C32.7 42.7 32.7 42.8 32.7 42.8L32.8 42.9C32.9 42.9 32.8 42.9 32.9 43C33 43.1 33 43 33.2 42.9C33.4 42.8 33.3 42.9 33.3 42.9C33.4 42.9 33.4 42.9 33.4 42.9C33.5 42.9 33.4 42.9 33.5 43C33.6 43 33.5 43.1 33.6 43.1C33.7 43.1 33.7 43.2 33.8 43.1C33.9 43.1 34 43.1 34 43.1C34 43.1 34 43.1 34.1 43C34.2 42.9 34.2 43 34.3 43C34.4 43 34.4 43 34.4 43H34.6C34.6 43 34.7 43 34.8 43C34.8 43 34.7 43 34.7 43.1C34.5 43.2 34.7 43.1 34.7 43.1V43.2C34.7 43.3 34.8 43.2 34.8 43.2V43.3H34.9L35 43.2C35 43.2 35 43.2 35 43.3C35 43.3 35 43.4 35.1 43.3C35.2 43.3 35.2 43.3 35.2 43.3C35.2 43.3 35.2 43.3 35.3 43.4C35.3 43.4 35.3 43.5 35.2 43.5C35.2 43.6 35.2 43.6 35.1 43.6C35.1 43.7 35.1 43.6 35.3 43.6C35.3 43.6 35.4 43.6 35.5 43.6C35.6 43.6 35.6 43.7 35.7 43.7C35.8 43.7 35.7 43.8 35.8 43.8H35.9C36 43.8 36 43.8 36 43.9C36 43.9 36 44 36.1 44C36.2 44 36.2 44.1 36.2 44.1L36.3 44.2C36.3 44.3 36.3 44.2 36.3 44.3C36.3 44.4 36.4 44.3 36.5 44.3C36.6 44.3 36.6 44.3 36.6 44.3C36.6 44.3 36.8 44.4 36.9 44.5C37 44.6 37 44.6 37.1 44.7C37.1 44.7 37.1 44.7 37.2 44.7C37.3 44.7 37.3 44.7 37.3 44.7C37.3 44.7 37.3 44.7 37.4 44.6C37.5 44.6 37.5 44.6 37.6 44.6C37.7 44.6 37.6 44.6 37.7 44.6C37.7 44.6 37.8 44.7 37.9 44.6C38 44.6 38 44.6 38 44.6H38.1C38.2 44.6 38.1 44.7 38.2 44.7C38.2 44.7 38.2 44.7 38.3 44.7C38.4 44.7 38.3 44.8 38.4 44.8C38.5 44.8 38.5 44.9 38.6 44.9C38.7 44.9 38.7 44.9 38.8 45C38.9 45 39 45.1 39 45.2L39.1 45.3V45.4C39.1 45.4 39.2 45.4 39.3 45.5C39.4 45.6 39.3 45.6 39.4 45.6C39.4 45.7 39.4 45.7 39.5 45.8C39.6 45.9 39.5 45.9 39.5 45.9V46V46.1L39.6 46.2L39.7 46.3C39.7 46.3 39.8 46.4 39.7 46.4V46.5C39.8 46.7 39.7 46.5 39.7 46.6C39.7 46.7 39.7 46.7 39.7 46.7C39.7 46.7 39.7 46.7 39.6 46.8C39.5 46.8 39.5 46.8 39.4 46.9C39.3 46.9 39.4 46.9 39.3 47C39.3 47.1 39.3 47 39.2 47.1C39.2 47.1 39.2 47.1 39.3 47.3L39.4 47.4C39.4 47.4 39.4 47.5 39.5 47.5C39.5 47.5 39.5 47.4 39.5 47.3C39.5 47.2 39.5 47.2 39.4 47.2C39.4 47.2 39.4 47.2 39.5 47.1C39.6 47 39.5 47.1 39.7 47.1C39.8 47.1 39.8 47.2 39.9 47.1C40 47.1 40 47.1 40 47.1C40 47.1 40.1 47.1 40.2 47.1C40.3 47.1 40.2 47.2 40.2 47.2V47.3C40.2 47.4 40.2 47.4 40.2 47.4C40.2 47.5 40.2 47.5 40.2 47.5C40.2 47.5 40.1 47.6 40 47.6C39.9 47.6 39.9 47.6 39.8 47.6C39.7 47.6 39.7 47.6 39.7 47.6C39.7 47.6 39.4 47.5 39.5 47.6C39.6 47.6 39.6 47.7 39.6 47.7L39.7 47.8C39.7 47.8 39.8 47.8 39.9 47.8C40 47.8 40 47.9 40 47.9C40 47.9 40 47.9 40 47.8C40 47.7 40 47.8 40 47.8C40 47.8 40 47.8 40.1 47.7C40.1 47.6 40.1 47.7 40.2 47.6C40.3 47.5 40.3 47.6 40.3 47.5C40.3 47.4 40.3 47.4 40.4 47.3C40.4 47.2 40.4 47.3 40.5 47.2H40.6C40.6 47.2 40.6 47.3 40.7 47.2C40.7 47.2 40.7 47.2 40.8 47.2C40.8 47.2 40.8 47.3 40.9 47.3L41 47.4L41.1 47.5C41.1 47.5 41.2 47.6 41.2 47.5H41.3C41.3 47.5 41.4 47.5 41.4 47.6C41.4 47.6 41.5 47.6 41.6 47.7C41.6 47.7 41.7 47.7 41.7 47.8C41.8 47.9 41.8 47.8 41.8 48C41.8 48 41.8 48 41.8 48.1C41.8 48.2 41.8 48.2 41.9 48.2C42 48.2 41.9 48.2 41.9 48.1C42 48 41.9 48.1 42 48.1C42 48.1 42.1 48.1 42.2 48C42.3 47.9 42.2 48 42.3 47.9C42.4 47.8 42.4 47.9 42.4 47.9C42.5 47.9 42.5 48 42.5 48C42.5 48 42.5 48 42.6 48C42.7 48 42.7 48.1 42.8 48.1C42.9 48.1 42.9 48.2 42.9 48.1C43 48.1 43 48.1 43 48.1C43.1 48.1 43.1 48.1 43.2 48.1C43.3 48.1 43.3 48.1 43.4 48.1C43.4 48.1 43.5 48.1 43.5 48.2C43.5 48.2 43.6 48.2 43.7 48.2C43.7 48.2 43.8 48.3 43.9 48.3L44 48.4C44 48.4 44.1 48.5 44.2 48.5C44.3 48.5 44.3 48.6 44.3 48.6C44.3 48.6 44.4 48.6 44.5 48.7C44.6 48.7 44.6 48.8 44.6 48.9C44.6 49 44.7 49 44.7 49C44.8 49.1 44.8 49 44.8 49C44.8 49 44.9 49 45 49C45.1 49 45 49 45.1 49C45.2 49 45.2 49 45.3 49C45.4 49 45.3 49 45.5 49.3C45.5 49.3 45.5 49.4 45.6 49.4V49.5C45.6 49.6 45.6 49.6 45.6 49.7C45.6 49.7 45.6 49.8 45.6 49.9C45.6 50 45.6 50 45.6 50C45.6 50 45.6 50.1 45.6 50.2C45.6 50.2 45.6 50.3 45.6 50.4V50.5C45.6 50.5 45.6 50.5 45.5 50.6C45.5 50.7 45.5 50.7 45.4 50.7C45.4 50.8 45.3 50.7 45.3 50.8C45.2 50.9 45 51.1 45 51.2C44.9 51.3 44.9 51.3 44.9 51.3V51.4V51.5V51.6C44.9 51.6 44.8 51.7 44.8 51.8C44.8 51.9 44.7 51.9 44.7 51.9C44.6 51.9 44.7 51.9 44.6 51.9C44.5 51.9 44.6 51.9 44.5 51.9C44.4 51.9 44.4 51.9 44.4 51.9C44.4 51.9 44.4 51.9 44.5 52C44.6 52 44.5 52 44.4 52C44.3 52 44.4 52 44.3 52C44.2 52 44.3 52 44.3 52.1C44.3 52.2 44.3 52.2 44.3 52.2C44.3 52.2 44.3 52.3 44.3 52.4C44.3 52.5 44.3 52.5 44.3 52.6C44.3 52.7 44.3 52.8 44.3 52.8C44.3 52.9 44.4 53 44.4 53C44.4 53.1 44.4 53.1 44.4 53.2V53.3C44.4 53.4 44.4 53.5 44.4 53.5C44.4 53.5 44.4 53.6 44.4 53.7C44.4 53.7 44.4 53.8 44.3 53.8C44.2 53.8 44.3 53.9 44.3 53.9C44.3 53.9 44.3 53.9 44.3 54C44.3 54.1 44.3 54 44.3 54.3C44.3 54.6 44.3 54.4 44.3 54.4C44.3 54.4 44.3 54.5 44.2 54.6C44.1 54.7 44.1 54.7 44.1 54.8C44.1 54.9 44 54.9 44 55C44 55.1 44 55.2 44 55.2C44 55.2 44 55.3 43.9 55.4C43.8 55.5 43.9 55.4 43.8 55.5V55.6C43.8 55.7 43.7 55.7 43.7 55.7H43.6C43.6 55.7 43.5 55.7 43.5 55.8C43.4 55.8 43.4 55.8 43.4 55.8H43.3H43.2C43.2 55.8 43.1 55.8 43 55.8C42.9 55.8 42.9 55.8 42.9 55.8C42.9 55.7 42.9 55.8 42.9 55.9C42.9 56 42.9 55.9 42.8 56C42.7 56.1 42.7 56 42.6 56.1C42.5 56.2 42.7 56.2 42.7 56.2C42.7 56.2 42.6 56.2 42.5 56.2C42.4 56.2 42.5 56.2 42.4 56.2L42.3 56.1H42.2H42.1C42.1 56.1 42.1 56.1 42 56.2C42 56.2 41.9 56.3 41.8 56.4C41.7 56.5 41.7 56.5 41.7 56.5C41.7 56.5 41.7 56.5 41.6 56.5C41.6 56.5 41.5 56.5 41.4 56.5C41.3 56.5 41.4 56.6 41.5 56.7C41.5 56.8 41.5 56.7 41.4 56.8C41.4 56.8 41.4 56.9 41.5 56.9C41.5 57 41.5 57 41.5 57L41.6 57.1C41.6 57.1 41.6 57.2 41.6 57.3V57.5C41.6 57.5 41.6 57.6 41.6 57.7C41.6 57.7 41.6 57.7 41.6 57.8C41.6 57.9 41.5 58.1 41.5 58.1C41.4 58.2 41.4 58.3 41.3 58.3C41.2 58.4 41.3 58.4 41.3 58.5C41.3 58.6 41.3 58.6 41.3 58.6V58.7C41.3 58.8 41.3 58.8 41.2 58.9C41.2 58.9 41.2 59 41.1 59L41 59.1C40.9 59.1 40.9 59.2 40.9 59.2C40.9 59.2 40.8 59.3 40.7 59.3C40.7 59.4 40.7 59.3 40.6 59.3V59.4C40.6 59.4 40.6 59.5 40.6 59.6C40.6 59.7 40.6 59.7 40.6 59.7L40.5 59.8C40.5 59.8 40.4 59.9 40.4 60C40.4 60.1 40.4 60.1 40.3 60.1C40.3 60.1 40.3 60.2 40.2 60.3C40.2 60.4 40.1 60.4 40.1 60.4L40 60.5C40 60.5 39.9 60.6 39.7 60.5H39.6C39.5 60.5 39.6 60.5 39.5 60.5H39.4C39.4 60.5 39.4 60.5 39.3 60.5C39.3 60.5 39.2 60.5 39.1 60.5C39 60.5 39 60.4 39 60.4C39 60.3 38.9 60.4 38.8 60.3C38.7 60.3 38.8 60.3 38.7 60.3C38.6 60.3 38.6 60.2 38.5 60.2C38.5 60.2 38.5 60.1 38.5 60V59.8C38.5 59.7 38.5 59.7 38.5 59.7C38.5 59.6 38.4 59.5 38.4 59.5V59.6C38.4 59.7 38.4 59.7 38.4 59.7C38.4 59.7 38.4 59.7 38.4 59.8C38.4 59.9 38.4 59.9 38.4 59.9C38.4 59.9 38.4 60 38.4 60.1C38.4 60.2 38.4 60.1 38.4 60.2C38.4 60.3 38.4 60.3 38.5 60.3L38.6 60.4C38.6 60.4 38.8 60.5 38.9 60.5C39 60.5 39 60.6 39 60.6C39 60.6 39 60.7 39.1 60.8C39.1 60.8 39.1 60.9 39.1 61C39.1 61.1 39.1 61 39.1 61C39.1 61 39.1 61.1 39.2 61.1C39.3 61.1 39.2 61.1 39.3 61.2C39.3 61.3 39.3 61.2 39.3 61.3C39.3 61.4 39.3 61.4 39.3 61.4V61.5V61.6C39.3 61.6 39.3 61.7 39.2 61.8C39.2 61.8 39.2 61.8 39.1 61.9C39.1 61.9 39.1 61.9 39.1 62L39 62.1L38.9 62.2H38.8H38.7C38.7 62.2 38.3 62.3 38.2 62.3C38.1 62.3 38 62.3 38 62.3C38 62.3 38 62.3 37.8 62.3C37.7 62.3 37.8 62.3 37.7 62.3C37.6 62.3 37.6 62.3 37.5 62.3C37.5 62.3 37.5 62.4 37.6 62.5C37.7 62.6 37.6 62.6 37.6 62.6C37.6 62.6 37.6 62.7 37.6 62.8L37.5 62.9C37.5 62.9 37.5 63 37.7 63C37.8 63.1 37.7 63.1 37.6 63.1L37.5 63.2H37.4C37.4 63.2 37.3 63.2 37.2 63.2C37.1 63.2 37.1 63.1 37.1 63.1C37.1 63 37 63.1 36.9 63C36.8 63 36.8 63 36.8 63C36.8 63.1 36.9 63.1 36.9 63.2C36.9 63.3 36.9 63.3 36.9 63.3C36.9 63.3 36.9 63.4 36.9 63.5C36.9 63.6 36.9 63.6 37 63.6C37 63.6 37.1 63.7 37.2 63.7C37.2 63.7 37.2 63.6 37.3 63.6C37.3 63.5 37.4 63.6 37.5 63.6C37.6 63.6 37.5 63.7 37.5 63.9C37.5 64.1 37.4 63.9 37.4 63.9C37.3 63.9 37.4 63.8 37.3 63.7C37.3 63.7 37.3 63.7 37.2 63.7C37.2 63.7 37.1 63.7 37.2 63.7L37.4 63.9C37.4 63.9 37.4 64 37.3 64V64.2V64.3C37.3 64.3 37.3 64.4 37.4 64.4C37.4 64.4 37.4 64.5 37.4 64.7C37.4 64.9 37.3 64.7 37.3 64.7C37.3 64.7 37.2 64.8 37.1 64.8C37 64.9 37 64.8 37 64.8L36.9 64.9C36.9 64.9 36.9 64.9 36.9 65C36.9 65 36.9 65.1 36.9 65.2C36.9 65.2 36.9 65.3 36.9 65.4C36.9 65.5 37 65.5 37 65.6C37 65.7 37.1 65.7 37.2 65.7C37.2 65.7 37.3 65.7 37.4 65.7H37.5C37.5 65.7 37.5 65.8 37.6 65.9C37.6 66 37.6 66 37.6 66C37.6 66 37.5 66.1 37.6 66.1C37.7 66.1 37.7 66.1 37.7 66.2V66.3C37.7 66.3 37.6 66.4 37.6 66.5C37.5 66.6 37.5 66.6 37.4 66.6C37.4 66.6 37.3 66.6 37.3 66.7C37.3 66.8 37.3 67 37.2 67L37.3 67.2H37.2C37.1 67.2 37.1 67.2 37.1 67.3C37 67.4 37.1 67.5 37 67.4V67.5C37 67.5 37 67.7 37.1 67.7C37.1 67.7 37.2 67.8 37.2 67.9C37.3 68 37.4 68.1 37.4 68.1C37.5 68.1 37.4 68.2 37.4 68.2C37.4 68.2 37.3 68.2 37.2 68.1C37.1 68.1 37.1 68 37 68.1L37.1 68.2C37.2 68.2 37.2 68.3 37.3 68.3C37.3 68.3 37.3 68.3 37.4 68.3C37.5 68.3 37.5 68.4 37.5 68.4V68.5C37.5 68.6 37.5 68.6 37.6 68.6L37.8 68.8C37.8 68.8 37.9 68.9 37.9 68.8L38 68.9C38 69 38 68.9 38.1 69C38.2 69 38.2 69.1 38.2 69.1C38.2 69.1 38.3 69.2 38.4 69.1C38.5 69.1 38.6 69.2 38.7 69.2C38.8 69.2 38.7 69.3 38.7 69.3L38.6 69.4C38.6 69.4 38.4 69.4 38.5 69.4H38.4H38.3H38.2C38.2 69.4 38.1 69.4 38 69.3C38 69.3 37.9 69.3 37.8 69.3C37.8 69.3 37.8 69.3 37.6 69.3C37.4 69.3 37.6 69.3 37.5 69.3C37.5 69.3 37.4 69.3 37.3 69.3C37.2 69.3 37.2 69.2 37.2 69.2H37.1H37L36.8 69.1C36.8 69.1 36.7 69 36.8 69C36.8 69 36.9 69 36.9 68.9H37.1H37.2C37.3 68.9 37.2 68.9 37.2 68.8L37 68.7C37 68.6 37 68.6 36.9 68.5C36.9 68.4 37 68.5 37 68.5V68.4H36.9C36.9 68.4 36.8 68.4 36.7 68.4C36.7 68.4 36.7 68.3 36.8 68.2C36.9 68.2 36.8 68.1 36.8 68.1C36.8 68.1 36.7 68.1 36.6 68.1C36.5 68.1 36.6 68.2 36.6 68.2C36.6 68.2 36.6 68.2 36.5 68.3C36.5 68.3 36.5 68.3 36.4 68.3C36.4 68.3 36.3 68.4 36.4 68.5C36.4 68.6 36.5 68.6 36.5 68.7C36.5 68.7 36.5 68.8 36.4 68.8C36.4 68.8 36.3 68.8 36.2 68.7C36.1 68.7 36.2 68.7 36.1 68.6C36.1 68.5 36.1 68.6 36 68.5C36 68.4 36 68.5 36.1 68.4C36.1 68.3 36.2 68.4 36.3 68.4C36.4 68.4 36.2 68.3 36.2 68.3C36.2 68.3 36.2 68.3 36.1 68.2C36.1 68.1 36 68.2 36 68.1C36 68.1 35.9 68.1 35.8 68C35.7 67.9 35.7 68.1 35.7 68C35.7 67.9 35.7 68 35.6 67.9C35.6 67.8 35.5 67.9 35.5 67.8C35.5 67.8 35.6 67.8 35.6 67.7C35.6 67.6 35.6 67.6 35.6 67.5C35.6 67.5 35.6 67.5 35.5 67.5C35.5 67.5 35.4 67.5 35.4 67.4H35.3C35.3 67.4 35.3 67.4 35.3 67.5C35.3 67.6 35.2 67.5 35.2 67.5C35.2 67.5 35.1 67.5 35.1 67.4C35.1 67.3 35.1 67.4 35.1 67.3C35.1 67.2 35 67.2 34.9 67.1C34.8 67 34.9 67.1 34.8 67.1C34.7 67.1 34.7 67.1 34.6 67C34.5 66.9 34.5 67 34.6 66.9C34.6 66.9 34.7 66.9 34.7 66.8V66.7C34.7 66.7 34.6 66.6 34.5 66.6V66.5C34.5 66.4 34.6 66.5 34.6 66.4L34.5 66.3C34.5 66.3 34.5 66.2 34.5 66.1C34.5 66 34.4 66 34.3 65.9C34.3 65.8 34.2 65.8 34.2 65.8C34.2 65.7 34.3 65.7 34.3 65.6C34.3 65.6 34.3 65.6 34.3 65.5C34.3 65.4 34.4 65.5 34.4 65.5C34.4 65.5 34.5 65.5 34.6 65.5C34.6 65.5 34.5 65.4 34.4 65.4C34.3 65.3 34.4 65.4 34.3 65.4C34.2 65.4 34.3 65.4 34.3 65.3C34.3 65.3 34.2 65.3 34.1 65.3C34 65.2 34 65.2 34 65.2C34 65.1 34.1 65.2 34.1 65.1C34.1 65 34.1 65.1 34.1 65C34.1 64.9 34.1 65 34.1 64.9C34.1 64.8 34 65 34 65C34 65 34 65 34 64.9H33.9L33.8 65C33.8 65 33.7 64.9 33.6 64.9C33.5 64.8 33.7 64.9 33.7 64.8C33.8 64.8 33.8 64.8 33.8 64.7C33.8 64.7 33.8 64.7 33.7 64.6C33.7 64.6 33.7 64.5 33.8 64.5L33.9 64.6C33.8 64.6 33.9 64.7 34 64.7C34.1 64.7 34 64.8 34 64.8H34.1C34.1 64.8 34.1 64.8 34.1 64.7V64.6C34.1 64.5 34 64.5 34 64.5C34 64.5 34 64.5 34 64.4C34 64.3 34.1 64.4 34.1 64.5L34 64.4C34 64.4 34 64.4 34 64.2C34 64.1 34.1 64.2 34.1 64.2C34.1 64.2 34.1 64.1 34 64C34 64 33.9 64 33.9 63.9C33.9 63.8 33.9 63.9 33.9 63.8V63.7C33.9 63.7 33.9 63.7 33.9 63.5C33.9 63.3 33.9 63.5 33.9 63.5C33.9 63.5 33.9 63.5 33.9 63.4C33.9 63.3 33.9 63.3 33.9 63.3C33.9 63.3 34 63.3 33.9 63.2C33.9 63.2 33.9 63.2 33.9 63.1C33.9 63 33.9 63.1 33.9 63C33.9 62.9 33.9 63 33.8 62.9C33.8 62.8 33.8 62.9 33.9 62.8C33.9 62.7 33.9 62.7 33.8 62.7C33.7 62.7 33.7 62.7 33.7 62.7C33.7 62.7 33.7 62.7 33.6 62.7C33.6 62.7 33.5 62.7 33.5 62.6L33.4 62.5C33.4 62.5 33.3 62.4 33.3 62.3C33.3 62.2 33.3 62.3 33.3 62.2C33.3 62.1 33.3 62.1 33.3 62.1C33.3 62 33.3 61.9 33.3 61.9C33.3 61.9 33.3 61.9 33.3 61.8C33.3 61.7 33.3 61.8 33.3 61.7C33.3 61.6 33.3 61.6 33.3 61.6V61.5C33.3 61.5 33.3 61.4 33.2 61.3C33.2 61.3 33.2 61.2 33.1 61.1C33 61 33.1 61.1 33 61C32.9 60.9 33 61 32.9 60.8C32.9 60.7 32.8 60.7 32.9 60.5C32.9 60.4 32.9 60.4 32.9 60.4C32.9 60.3 32.9 60.4 33 60.3C33 60.2 33 60.2 33 60.1C33 60 33 60 33 59.9C33 59.9 33 59.8 33.1 59.7C33.1 59.6 33.1 59.6 33.1 59.5C33.1 59.4 33 59.4 33 59.3C33 59.2 33 59.3 33 59.2C33 59.1 33.1 59.1 33.1 59C33.1 58.9 33.1 59 33.1 58.9C33.1 58.9 33.1 58.8 33.1 58.7C33.1 58.6 33.1 58.6 33.1 58.6C33.1 58.5 33.1 58.5 33.1 58.4C33.1 58.3 33 58.3 33 58.2C33 58.1 33 58 32.9 58C32.9 57.9 32.9 57.8 32.8 57.6C32.8 57.6 32.8 57.6 32.8 57.5C32.8 57.5 32.8 57.4 32.8 57.3C32.8 57.2 32.8 57.2 32.7 57.2C32.7 57.1 32.6 57.1 32.6 56.9C32.6 56.8 32.6 56.9 32.6 56.8C32.6 56.7 32.6 56.8 32.6 56.6C32.6 56.5 32.6 56.6 32.6 56.5C32.6 56.4 32.6 56.4 32.6 56.3C32.6 56.2 32.6 56.3 32.6 56.2C32.6 56.1 32.6 56.1 32.6 56C32.6 55.9 32.6 55.9 32.5 55.8C32.5 55.7 32.5 55.7 32.5 55.6C32.5 55.5 32.5 55.1 32.4 54.9C32.4 54.9 32.4 54.8 32.3 54.7C32.3 54.6 32.3 54.7 32.3 54.5C32.3 54.3 32.3 54.5 32.3 54.4C32.3 54.3 32.3 54.4 32.3 54.2V54.1C32.3 54 32.3 54 32.2 53.9C32.2 53.8 32.2 53.9 32.1 53.8C32.1 53.7 32.1 53.8 32.1 53.7C32.1 53.6 32.1 53.6 32.1 53.6C32.1 53.5 32.1 53.5 32.1 53.5C32.1 53.5 32.1 53.4 32 53.4C32 53.4 32 53.3 31.9 53.2C31.9 53.1 31.9 53.1 31.9 53.1C31.9 53.1 31.9 53.1 31.8 53C31.8 53 31.8 53 31.7 52.9C31.6 52.8 31.7 52.9 31.6 52.8C31.6 52.8 31.5 52.7 31.4 52.6C31.4 52.6 31.3 52.5 31.3 52.4C31.2 52.3 31.2 52.3 31.1 52.3H31H30.9L30.8 52.2H30.7C30.6 52.2 30.6 52.1 30.6 52.1C30.5 52.1 30.3 51.9 30.3 51.9C30.3 51.9 30.2 51.9 30.1 51.8C30.1 51.8 30 51.8 30 51.7L29.9 51.6C29.9 51.6 29.8 51.6 29.8 51.5C29.8 51.4 29.8 51.5 29.7 51.4C29.6 51.3 29.7 51.3 29.7 51.3C29.6 51.3 29.6 51.2 29.5 51.2C29.5 51.2 29.4 51.2 29.4 51.1C29.4 51.1 29.4 51.1 29.4 51V50.9C29.4 50.8 29.4 50.9 29.4 50.8C29.4 50.8 29.4 50.7 29.3 50.7C29.3 50.6 29.2 50.7 29.2 50.6C29.1 50.5 29.2 50.5 29.1 50.5C29 50.4 29 50.4 29 50.4L28.9 50.3C28.9 50.3 28.9 50.2 28.8 50.2C28.8 50.1 28.7 50.2 28.7 50.1C28.7 50.1 28.6 50 28.6 49.9C28.6 49.9 28.6 49.9 28.6 49.8C28.6 49.8 28.5 49.7 28.5 49.6C28.5 49.5 28.4 49.5 28.4 49.4C28.4 49.3 28.4 49.3 28.3 49.3C28.3 49.3 28.3 49.3 28.2 49.2H28.1C28.1 49.2 28.1 49.2 28 49.2C28 49.2 28 49.2 27.9 49.1C27.9 49.1 27.9 49 27.8 49C27.8 49 27.8 49 27.8 48.9C27.8 48.9 27.7 48.8 27.7 48.7L27.6 48.6L27.5 48.5C27.5 48.5 27.5 48.5 27.5 48.4L27.4 48.3L27.3 48.2H27.2C27.2 48.2 27.1 48.2 27 48.1C26.9 48 26.9 48 26.9 48C26.9 48 26.9 48 26.9 47.9C26.9 47.9 26.9 47.9 26.9 47.8C26.9 47.8 26.9 47.8 26.9 47.7C26.9 47.6 26.9 47.7 26.8 47.6C26.8 47.6 26.8 47.6 26.7 47.5C26.7 47.4 26.7 47.5 26.7 47.4C26.7 47.3 26.7 47.4 26.7 47.3V47.2V47.1C26.7 47.1 26.7 47.1 26.8 47C26.9 46.9 26.8 47 26.9 47H27C27 47 27 47 27.1 47L27.2 46.9C27.2 46.8 27.2 46.8 27.2 46.8C27.2 46.8 27.2 46.7 27.2 46.6V46.7V46.8H27.1C27.1 46.8 27.1 46.8 27 46.7C27 46.7 26.9 46.7 26.9 46.6C26.9 46.6 26.9 46.6 26.9 46.5C26.9 46.5 26.8 46.5 26.8 46.4C26.8 46.4 26.8 46.4 26.8 46.3C26.8 46.2 26.8 46.3 26.8 46.2C26.8 46.2 26.8 46.1 26.9 46.1C26.9 46.1 26.9 46 26.9 45.9C26.9 45.9 26.9 45.9 26.9 45.8C26.9 45.8 26.9 45.8 26.9 45.7C26.9 45.7 26.9 45.7 27 45.6C27.1 45.5 27 45.6 27 45.6C27 45.6 27 45.6 27 45.5C27 45.5 27 45.5 27 45.4H27.1C27.1 45.4 27.2 45.4 27.2 45.3H27.3H27.4V45.2C27.4 45.2 27.4 45.2 27.4 45.1V45V44.9L27.5 44.8C27.5 44.8 27.5 44.8 27.6 44.8H27.7C27.8 44.8 27.7 44.8 27.7 44.8C27.7 44.8 27.7 44.8 27.7 44.7C27.7 44.7 27.7 44.7 27.7 44.6C27.7 44.6 27.7 44.6 27.7 44.5C27.7 44.5 27.7 44.5 27.8 44.4C27.8 44.3 27.8 44.4 27.8 44.4C27.8 44.4 27.7 44.3 27.7 44.2V44.1V44C27.7 44 27.7 43.9 27.6 43.9C27.6 43.8 27.6 43.9 27.6 43.8C27.6 43.7 27.6 43.7 27.6 43.7V43.6V43.5V43.4C27.6 43.4 27.5 43.4 27.5 43.3C27.5 43.3 27.5 43.3 27.5 43.2C27.5 43.2 27.4 43.3 27.4 43.2C27.3 43.2 27.3 43.1 27.3 43H27.2C27.2 43 27.2 43 27.1 43V43.1C27.1 43.1 27.1 43.1 27.1 43.2C27.1 43.3 27 43.3 27 43.3L26.8 43.4C26.8 43.4 26.8 43.5 26.9 43.6L27 43.7C27 43.7 27 43.8 26.9 43.9H26.8H26.7H26.5C26.5 43.9 26.5 43.9 26.5 43.8C26.5 43.8 26.4 43.7 26.4 43.6H26.3H26.2H26.1V43.5H26L25.9 43.4C25.9 43.4 25.8 43.4 25.7 43.3C25.6 43.3 25.5 43.3 25.3 43.2C25.3 43.2 25.2 43.1 25.1 43.1C25 43.1 25 43.1 25 43.1C25 43.1 25 43.1 25 43.2H24.9C24.9 43.2 24.9 43.1 24.8 43.1C24.8 43.1 24.7 43.1 24.7 43C24.7 43 24.7 43 24.6 42.9C24.6 42.9 24.5 42.9 24.6 42.8C24.6 42.8 24.6 42.8 24.6 42.7C24.6 42.6 24.6 42.7 24.6 42.6L24.5 42.5C24.5 42.5 24.4 42.5 24.4 42.4C24.4 42.4 24.3 42.4 24.3 42.3H24.2L24.1 42.2H24C24 42.2 24 42.2 23.9 42.1C23.9 42.1 23.9 42 23.8 42C23.8 42 23.6 41.9 23.7 41.9C23.7 42 23.8 42 23.8 42V42.1L23.7 42L23.5 41.9C23.5 41.9 23.5 41.9 23.4 41.9H23.3L23.2 41.8C23.2 41.8 23.2 41.7 23.1 41.7C23.1 41.6 23.1 41.6 23.1 41.6C23.1 41.6 23.1 41.4 23.1 41.3V41.2L23 41.1L22.9 41C22.9 41 22.8 41 22.7 40.9C22.6 40.8 22.6 40.8 22.6 40.8C22.6 40.8 22.5 40.7 22.4 40.6C22.4 40.5 22.3 40.5 22.3 40.5C22.3 40.5 22.2 40.4 22.2 40.3C22.2 40.3 22 40.2 21.9 40.1C21.9 40.1 21.9 40.1 21.8 40C21.8 40 21.8 40 21.8 39.9C21.8 39.9 21.8 39.8 21.8 39.7C21.8 39.6 21.7 39.7 21.7 39.7C21.7 39.7 21.4 39.7 21.3 39.7C21.2 39.7 21 39.7 21 39.7H20.8C20.8 39.7 20.6 39.7 20.6 39.6C20.5 39.6 20.5 39.6 20.4 39.6C20.4 39.6 20.2 39.5 20.1 39.5C20 39.4 20 39.5 20 39.4C19.9 39.4 19.8 39.3 19.8 39.3C19.7 39.3 19.6 39.3 19.6 39.3H19.5C19.5 39.3 18.9 39.1 18.8 39.1C18.8 39.1 18.7 39.1 18.7 39C18.7 39 18.7 39 18.7 38.9C18.7 38.9 18.6 38.8 18.6 38.7C18.6 38.7 18.5 38.6 18.4 38.5C18.3 38.4 18.3 38.5 18.3 38.5C18.2 38.5 18.2 38.5 18.2 38.4L18.1 38.3C18.1 38.3 18 38.2 17.9 38.2L17.6 38C17.6 38 17.5 38 17.3 37.9C17.3 37.9 17.1 37.8 17 37.8C16.9 37.8 16.9 37.8 16.9 37.8C16.8 37.8 16.9 37.8 16.8 37.8H16.7C16.7 37.8 16.6 37.8 16.5 37.9C16.3 38 16.3 38 16.3 38C16.2 38 16.3 38 16.2 38H16C16 38 15.9 38 15.8 38C15.8 38 15.6 37.9 15.6 38H15.4C15.4 38 14.9 37.8 14.8 37.8C14.7 37.7 14.7 37.8 14.6 37.7C14.6 37.7 14.5 37.7 14.5 37.6C14.4 37.6 14.4 37.6 14.4 37.5H14.3C14.3 37.5 14.2 37.5 14.1 37.4C14.1 37.4 14 37.4 13.9 37.4C13.8 37.4 13.8 37.4 13.8 37.4C13.8 37.4 13.7 37.4 13.7 37.3C13.6 37.3 13.6 37.3 13.5 37.3L13.4 37.2C13.4 37.2 13.3 37.1 13.2 37.1C13 37.1 13.1 37 13 37H12.9L12.7 36.9L12.6 36.8L12.4 36.7H12.2L12 36.6C12 36.6 11.8 36.6 11.6 36.6C11.5 36.5 11.5 36.5 11.4 36.5C11.3 36.5 11.3 36.5 11.3 36.5C11.3 36.5 11.2 36.5 11.1 36.4C11.1 36.4 11 36.4 11 36.3C11 36.3 10.9 36.3 10.9 36.2C10.9 36.2 10.8 36.1 10.7 36.1C10.6 36.1 10.6 36 10.6 36C10.6 36 10.5 36 10.4 36H10.3L10.2 35.9C10.2 35.9 10.1 35.8 9.99999 35.8C9.99999 35.8 9.99999 35.7 9.89999 35.6C9.89999 35.5 9.79999 35.4 9.69999 35.4C9.69999 35.4 9.59999 35.3 9.59999 35.2C9.59999 35.1 9.59999 35.2 9.59999 35.1C9.59999 35.1 9.69999 35.1 9.69999 35C9.69999 34.9 9.69999 35 9.69999 34.9C9.69999 34.9 9.69999 34.8 9.69999 34.7C9.69999 34.6 9.69999 34.7 9.69999 34.6V34.5C9.69999 34.5 9.69999 34.4 9.59999 34.4L9.49999 34.3C9.49999 34.2 9.49999 34.3 9.49999 34.2C9.49999 34.1 9.49999 34.2 9.49999 34.1C9.49999 34.1 9.39999 34 9.39999 33.9C9.39999 33.8 9.29999 33.8 9.29999 33.8L9.19999 33.7L8.89999 33.5L8.79999 33.3C8.79999 33.3 8.69999 33.2 8.49999 33.1C8.29999 33 8.39999 33 8.39999 33C8.39999 32.9 8.29999 33 8.29999 32.9C8.29999 32.8 8.19999 32.9 8.19999 32.8H8.09999C8.09999 32.8 7.99999 32.8 7.99999 32.7C7.99999 32.7 7.89999 32.6 7.79999 32.6L7.69999 32.5C7.69999 32.5 7.69999 32.5 7.69999 32.4C7.69999 32.3 7.69999 32.3 7.69999 32.3C7.69999 32.3 7.69999 32.2 7.59999 32.2H7.49999H7.39999C7.39999 32.2 7.29999 32.1 7.29999 32H7.19999C7.19999 32 7.09999 31.9 6.99999 31.9H6.89999L6.79999 31.8L6.69999 31.7C6.69999 31.7 6.69999 31.7 6.69999 31.6C6.69999 31.6 6.69999 31.5 6.79999 31.5C6.79999 31.4 6.79999 31.4 6.79999 31.4H6.69999C6.69999 31.4 6.59999 31.4 6.49999 31.3C6.49999 31.3 6.39999 31.3 6.39999 31.2C6.39999 31.1 6.29999 31.1 6.29999 31.1H6.19999H6.09999H5.99999V30.9L5.89999 30.8H5.79999C5.79999 30.8 5.69999 30.8 5.59999 30.7C5.49999 30.7 5.69999 30.7 5.49999 30.6C5.39999 30.5 5.39999 30.6 5.39999 30.5C5.39999 30.8 5.29999 31 5.29999 31.3C5.39999 31.3 5.39999 31.4 5.39999 31.5C7.69999 32.9 7.69999 33 7.69999 33C7.69999 33.1 7.59999 33 7.59999 33L7.79999 33.2C7.79999 33.2 7.79999 33.2 7.59999 33.3C7.49999 33.4 7.59999 33.3 7.69999 33.4C7.79999 33.4 7.79999 33.5 7.79999 33.5C7.89999 33.5 7.79999 33.6 7.79999 33.6L7.99999 33.7L8.09999 33.8C8.09999 33.8 8.09999 33.9 8.09999 34C8.09999 34 8.09999 34 8.09999 34.1C8.09999 34.1 8.09999 34.2 8.19999 34.2C8.19999 34.3 8.29999 34.3 8.29999 34.3L8.39999 34.4H8.59999C8.59999 34.4 8.69999 34.4 8.69999 34.5C8.69999 34.6 8.69999 34.5 8.79999 34.6C8.79999 34.7 8.79999 34.6 8.79999 34.7C8.79999 34.8 8.79999 34.8 8.89999 34.8L8.99999 34.9L9.09999 35C8.99999 35 8.99999 35 8.99999 35L8.79999 35.1C8.79999 35.1 8.69999 35.1 8.59999 35.1C8.59999 35.1 8.59999 35.1 8.49999 34.9C8.49999 34.8 8.49999 34.9 8.39999 34.8C8.29999 34.7 8.29999 34.8 8.29999 34.7L8.19999 34.6C8.19999 34.6 8.09999 34.6 7.99999 34.5L7.89999 34.4C7.89999 34.4 7.69999 34.3 7.59999 34.2C7.49999 34.1 7.49999 34.1 7.39999 34.1C7.29999 34.1 7.29999 34.1 7.19999 34C7.09999 35 7.09999 36.1 7.09999 37.2C7.09999 56.6 22.8 72.4 42.3 72.4C55.6 72.4 67.2 65 73.2 54.1C73.2 54.1 73.2 54 73.2 53.9C73.2 53.8 73.2 53.8 73.2 53.8C73.2 53.8 73.2 53.5 73 53.3C72.8 53.2 72.7 52.8 72.6 52.8C72.5 52.8 72.5 52.8 72.5 52.7C72.4 52.6 72.4 52.5 72.3 52.4C72 52 71.7 51.6 71.6 51.6C71.6 51.6 71.5 51.3 71.4 51.3C71.3 51.3 71.2 51 71.1 50.9C71.1 50.8 71.1 50.6 71.1 50.5C71.1 50.4 71.1 50.1 71.1 50.1C71.2 50 71.3 50 71.3 49.8C71.3 49.6 71.3 49.5 71.3 49.4C71.3 49.2 71.3 49.2 71.3 49.1C71.3 49 71.3 48.9 71.3 48.9C71.4 48.8 71.5 48.6 71.4 48.6C71.4 48.6 71.4 48.2 71.3 48.2C71.2 48.2 71.1 47.8 71.1 47.8C71.1 47.8 71 47.6 70.9 47.6C70.8 47.6 70.7 47.7 70.7 47.7C70.7 47.7 70.6 47.6 70.5 47.5L70.4 47.4V47.3C70.4 47.2 70.5 47.1 70.4 47.1C70.3 47.1 70.1 47.2 70 47.2C69.9 47.2 69.8 47.3 69.7 47.3C69.6 47.3 69.5 47.3 69.4 47.3C69.3 47.3 68.8 47.2 68.8 47.3C68.8 47.3 68.7 47.2 68.6 47.2C68.5 47.2 68.4 47 68.4 46.9C68.4 46.8 68.4 46.6 68.4 46.6C68.3 46.6 68.3 46.3 68.2 46.4C68.1 46.4 68 46.3 67.9 46.2C67.8 46.2 67.8 46 67.6 46C67.4 45.9 67.3 46 67.1 46C67 46 66.9 46 66.9 46H66.8C66.8 46 66.8 45.8 66.6 45.9C66.7 46 66.3 46 66.3 46C66.3 46 66.3 46 66.2 46C66.1 46 66.1 46 66 46.1C65.9 46.1 65.8 46.2 65.7 46.2C65.6 46.2 65.6 46.2 65.5 46.3C65.4 46.3 65.4 46.4 65.3 46.4C65.2 46.4 65.2 46.4 65.1 46.4C64.9 46.4 64.9 46.4 64.9 46.4C64.9 46.4 64.8 46.4 64.7 46.5C64.6 46.6 64.5 46.6 64.4 46.7C64.3 46.8 64.1 46.9 64.1 46.9C64.1 46.9 64 47 64 46.9C64 46.8 64 46.7 63.7 46.6C63.6 46.6 63.5 46.6 63.4 46.5C63.3 46.5 63.3 46.5 63.3 46.5C63.2 46.5 63.2 46.5 63 46.5C62.8 46.5 62.4 46.5 62.4 46.5C62.3 46.5 62.2 46.4 62 46.5C61.8 46.6 61.8 46.5 61.6 46.6C61.5 46.7 61.3 46.7 61.3 46.7C61 47 61 46.9 60.9 47C60.8 47.1 60.7 47.2 60.5 47.3H60.3C60.2 47.3 60 47.2 60 47.2L59.7 47.1C59.7 47.1 59.5 47 59.5 46.9L59.3 46.8L59.1 46.7C59.1 46.7 58.9 46.7 58.9 46.6C58.9 46.5 58.8 46.4 58.7 46.4C58.6 46.4 58.5 46.2 58.4 46.1C58.3 46 58 45.9 58 45.9C58 45.9 57.8 45.9 57.7 45.8C57.6 45.7 57.5 45.6 57.5 45.5L57.3 45.4C57.3 45.4 57.3 45.3 57.2 45.3C57.1 45.3 57 45.3 57 45.3C57 45.3 57 45.2 56.9 45.2C56.9 45.2 56.9 45.1 56.9 45C56.9 45 56.8 44.7 56.7 44.7C56.7 44.7 56.6 44.6 56.5 44.5C56.5 44.5 56.5 44.4 56.4 44.3C56.1 43.9 55.9 43.7 55.9 43.7C55.9 43.7 55.8 43.6 55.7 43.6C55.6 43.6 55.6 43.5 55.5 43.4C55.4 43.4 55.4 43.2 55.4 43.2C55.4 43.2 55.4 43.2 55.3 43.2C55.2 43.1 55.2 43 55.1 43.1L55 43V42.9C55 42.8 55 42.8 55 42.7C55 42.7 54.9 42.6 54.8 42.6C54.8 42.6 54.6 42.5 54.6 42.6C54.6 42.7 54.5 42.6 54.5 42.6C54.5 42.6 54.4 42.6 54.3 42.5V42.4H54.2C54.2 42.4 54.2 42.3 54.1 42.3V42.2C54.1 42.1 54.1 42.1 54.1 42C54.1 42 54 41.9 54.1 41.9C54.1 41.8 54.1 41.8 54.2 41.7C54.3 41.6 54.3 41.6 54.3 41.6V41.4L54.1 41.2C54 41.2 54 41.1 54 41L53.9 40.8C53.9 40.8 53.9 40.7 53.9 40.6C54 40.6 54.1 40.4 54.1 40.4C54.1 40.4 54.1 40.3 54.1 40.2C54.2 40.2 54.2 39.9 54.2 39.9V39.8V39.7C54.2 39.7 54.2 39.6 54.2 39.4C54.2 39.2 54.3 39 54.3 39L54.4 38.8L54.3 38.5C54.3 38.4 54.2 38.3 54.2 38.2C54.2 38.2 54.2 38.1 54.1 38.1L54 37.9C54 37.9 54 37.8 54 37.7C54.1 37.6 54.1 37.5 54.1 37.5L53.9 37.1C53.9 37.1 53.7 36.8 53.6 36.8C53.5 36.9 53.5 36.9 53.5 36.8C53.5 36.8 53.4 36.7 53.5 36.5V36.4C53.5 36.3 53.6 36.1 53.6 36.1C53.6 36 53.6 36 53.7 35.9C53.7 35.8 53.8 35.8 53.9 35.7C54 35.6 54.1 35.3 54.2 35.2C54.2 35.1 54.2 35 54.3 34.9C54.3 34.8 54.3 34.8 54.3 34.7C54.3 34.6 54.4 34.5 54.4 34.5L54.5 34.4L54.6 34.2L54.8 34C54.8 34 54.9 33.8 54.9 33.7L55 33.5V33.3L55.2 33.1L55.4 33L55.6 32.8C55.6 32.7 55.7 32.7 55.7 32.6C55.7 32.6 55.7 32.3 55.8 32.3C55.9 32.2 56 32.1 56 32.1L56.7 31.9C56.7 31.9 56.9 31.9 56.9 31.8C57 31.7 57 31.7 57.1 31.7L57.2 31.6L57.3 31.5C57.3 31.5 57.3 31.4 57.4 31.4C57.5 31.4 57.5 31.4 57.6 31.3C57.7 31.2 57.7 31.2 57.7 31.1C57.7 31.1 57.8 31 57.8 30.9L57.9 30.7L58 30.6V30.3C58 30.3 57.9 30.2 58 30.1C58 30 58.2 29.3 58.2 29.3C58.2 29.3 58.2 29.2 58.2 29.1C58.2 29.1 58.3 28.9 58.4 28.9C58.4 28.9 58.5 28.7 58.6 28.7C58.7 28.7 58.7 28.6 58.8 28.5C58.9 28.4 59 28.3 59 28.3C59 28.3 59.1 28.2 59.2 28.2L59.5 28.1C59.6 28.1 59.7 28 59.8 28C59.8 28 59.9 27.8 60 27.8C60 27.8 60.1 27.7 60.2 27.7C60.2 27.7 60.3 27.6 60.3 27.5C60.3 27.5 60.4 27.4 60.4 27.3L60.5 27.2C60.5 27.2 60.7 26.9 60.7 26.8C60.7 26.7 60.7 26.7 60.7 26.6C60.8 26.5 60.8 26.4 60.8 26.4L60.9 26.3C60.9 26.3 61 26.3 61 26.4C61 26.5 61.1 26.5 61.1 26.5C61.1 26.6 61.4 26.6 61.4 26.7C61.4 26.8 61.7 26.7 61.7 26.8L61.9 26.9C62 26.9 62.2 26.9 62.2 26.9C62.2 26.9 62.3 26.9 62.3 26.8H62.4C62.4 26.8 62.5 26.7 62.6 26.8C62.7 26.9 62.6 26.8 62.7 26.9C62.7 27 62.9 26.9 62.9 26.9C62.9 26.9 63 26.9 63 27C63 27.1 63 27 63.1 27C63.2 27 63.3 27 63.3 27H63.4C63.5 27 63.5 26.9 63.6 26.9C63.6 26.9 63.7 26.8 63.7 26.7L63.8 26.6L63.9 26.5L64.4 26.3V26.4C64.4 26.4 64.6 26.3 64.7 26.2C64.7 26.2 64.8 26.1 64.9 26.1L65 26C65.1 26 65.1 25.9 65.3 25.9C65.4 25.9 65.9 25.9 66 25.9C66 25.9 66.2 25.8 66.3 25.8C66.4 25.8 66.5 25.7 66.5 25.7C66.5 25.7 66.5 25.7 66.6 25.7C66.7 25.7 66.9 25.7 66.9 25.7H67.2C67.4 25.7 67.6 25.7 67.8 25.7L67.9 25.8L68 25.9C68.1 25.9 68.4 25.7 68.4 25.7L68.5 25.6C68.5 25.6 68.6 25.5 68.7 25.5H68.9H69C69 25.5 69.2 25.4 69.2 25.5C69.2 25.5 69.3 25.4 69.3 25.5C69.3 25.5 69.4 25.4 69.4 25.5C69.5 25.6 69.5 25.6 69.6 25.6H69.8C69.8 25.6 69.8 25.6 69.9 25.6C70 25.6 70.4 25.4 70.4 25.4L70.5 25.3L70.7 25.2C70.7 25.2 70.8 25.1 70.9 25.2C71 25.3 71.1 25.3 71.1 25.3C71.1 25.4 71.1 25.5 71.1 25.5C71.1 25.6 71 25.6 71.1 25.6C71.2 25.6 71.4 25.4 71.4 25.4L71.5 25.5C71.5 25.7 71.4 25.7 71.3 25.8C71.3 25.9 71.2 25.9 71.2 26C71.2 26.1 71.1 26.1 71.1 26.1C71.1 26.2 71.2 26.2 71.2 26.3C71.3 26.4 71.4 26.7 71.4 26.7C71.4 26.7 71.4 26.8 71.4 26.9C71.4 27 71.4 27 71.4 27C71.4 27.1 71.3 27.2 71.3 27.2C71.2 27.3 71.1 27.3 71.1 27.3L70.9 27.4L70.8 27.5C70.8 27.6 70.7 27.5 70.7 27.6C70.7 27.7 70.8 27.7 70.8 27.8C70.9 27.9 70.9 27.9 71 27.9C71.1 27.9 71.1 27.8 71.1 27.8C71.1 27.8 71.2 27.8 71.3 27.8C71.3 27.8 71.4 27.9 71.4 28C71.4 28 71.5 28.1 71.6 28.2C71.6 28.2 71.6 28.2 71.7 28.3C71.8 28.3 71.8 28.4 71.9 28.4C72 28.4 72 28.4 72.1 28.5C72.2 28.6 72.3 28.6 72.3 28.6C72.3 28.6 72.3 28.6 72.4 28.6C72.5 28.6 72.6 28.5 72.6 28.6H73C73.1 28.6 73.3 28.7 73.4 28.7L73.8 29C73.9 29 74 29 74 29C74.1 29 74.1 29.1 74.1 29.1C74.1 29.1 74.1 29.1 74.2 29.3C74.2 29.4 74.3 29.5 74.4 29.6C74.4 29.7 74.4 29.8 74.4 29.8C74.5 29.8 74.6 29.8 74.6 29.8C74.6 29.9 74.6 29.9 74.7 29.9C74.8 29.9 75 29.8 75 29.9L75.5 30H75.7C75.7 30 75.9 30 76 30.1C76.1 30.2 76.2 30.2 76.2 30.2L76.3 30.3C76.3 27.9 75.7 26 74.9 24.2C74.9 24.2 75 24.2 74.9 24.2ZM29.4 5.3C29.3 5.4 29.2 5.5 29 5.6C28.8 5.7 28.8 5.7 28.6 5.6C28.4 5.5 28.4 5.5 28.4 5.4C28.4 5.3 28.6 5.2 28.7 5.1C28.8 5 29 5.1 29 5C29 5 29.3 4.9 29.5 4.9C29.7 4.8 29.6 4.9 29.7 5C29.8 5.2 29.6 5.1 29.4 5.3ZM31.1 5.7C31 5.8 30.9 6 30.8 6.1C30.7 6.3 30.7 6.1 30.6 6C30.5 5.9 30.5 5.9 30.5 5.7C30.5 5.5 30.6 5.5 30.7 5.4C30.9 5.3 31 5.3 31.1 5.3C31.3 5.4 31.1 5.5 31.1 5.7ZM32.4 4.5C32.3 4.6 32.4 4.5 32.3 4.5C32.2 4.5 32.2 4.5 32 4.4C31.8 4.4 31.9 4.3 32 4.2C32.1 4.2 32.2 4.1 32.3 4.1C32.4 4.1 32.4 4.1 32.5 4.2C32.5 4.3 32.5 4.4 32.4 4.5ZM33 4.3C32.9 4.4 32.7 4.2 32.7 4.1C32.7 4.1 32.8 4 32.9 4C33 4 33 4 33.1 4.2C33.2 4.3 33.1 4.3 33 4.3ZM38.6 18.7C38.5 18.7 38.5 18.6 38.5 18.5C38.5 18.4 38.6 18.3 38.7 18.3C38.7 18.3 38.8 18.4 38.7 18.4C38.7 18.5 38.7 18.5 38.7 18.5C38.7 18.6 38.8 18.7 38.8 18.7C38.8 18.9 38.7 18.8 38.6 18.7ZM32.5 35.7C32.6 35.7 32.6 35.7 32.7 35.7C32.8 35.8 32.7 35.8 32.7 35.8C32.7 35.8 32.6 35.8 32.5 35.7C32.5 35.7 32.5 35.8 32.5 35.7ZM32.1 36.5C32.2 36.5 32.6 36.5 32.5 36.6C32.4 36.7 32.5 36.6 32.4 36.7C32.4 36.8 32.2 36.8 32.2 36.7C32.1 36.7 32.1 36.7 32 36.6C32 36.6 32.1 36.5 32.1 36.5ZM31.7 35.5C32 35.4 31.9 35.7 31.9 35.7C31.9 35.7 31.9 35.8 31.8 35.9C31.7 36 31.7 35.9 31.8 35.8C31.8 35.7 31.9 35.7 31.9 35.6C31.8 35.6 31.6 35.5 31.7 35.5ZM31.2 35C31.3 35 31.2 35.1 31.3 35.1C31.3 35.2 31.3 35.2 31.3 35.3C31.3 35.3 31.2 35.3 31.2 35.2C31.1 35.1 31.2 35.1 31.1 35.1C31 35.1 31.1 35 31.1 35C31 34.9 31.1 35 31.2 35ZM30.8 34.2C30.9 34.2 30.9 34.3 31 34.3C31.1 34.3 31 34.3 31 34.4C31 34.5 31 34.6 30.9 34.6C30.8 34.6 30.9 34.6 30.9 34.5C30.9 34.4 30.9 34.4 30.8 34.4C30.7 34.3 30.7 34.3 30.8 34.2ZM30.6 35H30.5C30.4 35 30.5 35 30.5 34.9C30.5 34.9 30.6 34.9 30.6 35ZM30.3 33.7C30.4 33.7 30.4 33.8 30.4 33.8C30.4 33.9 30.5 33.9 30.5 34C30.5 34.1 30.5 34.1 30.4 34C30.3 34 30.3 33.9 30.3 33.8C30.3 33.7 30.1 33.7 30.1 33.7C30.1 33.7 30.2 33.7 30.3 33.7ZM29.5 32.9C29.7 32.8 29.7 32.9 29.8 32.9C29.8 33 29.8 32.9 29.8 33C29.8 33.1 29.8 33.1 29.8 33.2C29.8 33.3 29.7 33.3 29.7 33.4C29.7 33.5 29.6 33.3 29.7 33.2C29.7 33.1 29.7 33.1 29.7 33C29.7 33 29.4 32.9 29.5 32.9ZM29.5 34.6C29.6 34.6 29.5 34.7 29.4 34.8C29.3 34.9 29.3 34.7 29.3 34.6C29.3 34.7 29.5 34.6 29.5 34.6ZM29.4 34.2C29.4 34.3 29.4 34.3 29.4 34.5C29.3 34.7 29.3 34.5 29.3 34.5C29.2 34.4 29.3 34.4 29.2 34.4C29.1 34.4 29.2 34.3 29.2 34.2C29.2 34.1 29.2 34 29.3 33.9L29.4 34C29.3 33.9 29.4 34.1 29.4 34.2ZM28.8 32.9C28.9 32.8 29 32.9 29.1 32.8C29.2 32.8 29.3 32.9 29.2 32.9C29.1 32.9 29.1 32.9 29 32.9C28.9 33 28.8 33.1 28.7 33C28.7 33 28.7 33 28.8 32.9ZM26.2 36.3C26.1 36.3 26.1 36.3 26 36.2C26 36.1 26 36 26.1 36C26.2 36 26.4 36.1 26.4 36.3C26.4 36.4 26.3 36.3 26.2 36.3ZM30.6 38.6C30.5 38.6 30.3 38.6 30.2 38.7C30.1 38.7 30.1 38.6 30 38.7C29.9 38.8 29.9 38.8 29.8 38.8C29.7 38.7 29.6 38.7 29.5 38.7C29.4 38.6 29.3 38.6 29.3 38.4C29.3 38.4 29.6 38.3 29.7 38.3C29.8 38.3 30 38.3 30.2 38.4C30.4 38.5 30.3 38.3 30.5 38.5C30.6 38.6 30.7 38.5 30.6 38.6ZM31.5 37.4L31.3 37.3C31.3 37.3 31.1 37.5 31.1 37.4C31.1 37.3 30.9 37.3 30.8 37.3C30.7 37.3 30.4 37.4 30.3 37.4C30.2 37.4 30.1 37.4 29.9 37.4C29.7 37.5 29.5 37.4 29.6 37.4C29.7 37.3 29.8 37.3 29.8 37.2C29.8 37.1 29.8 37 29.7 37C29.6 37 29.5 37 29.4 37C29.3 37 29.1 36.8 29 36.7C29 36.6 28.9 36.4 28.8 36.4C28.7 36.4 28.7 36.3 28.5 36.3C28.3 36.3 28.4 36.5 28.2 36.3C28 36 28.1 35.9 27.9 36C27.8 36 27.5 36 27.3 36C27.1 36 27 35.9 26.9 35.9C26.8 35.9 26.7 36 26.7 35.8C26.7 35.7 26.7 35.6 26.7 35.6C26.6 35.6 26.5 35.5 26.4 35.5C26.3 35.6 26.2 35.5 26.1 35.6C26 35.7 25.9 35.7 25.8 35.8C25.5 35.9 25.4 35.7 25.3 35.8C25.2 35.9 25.1 36 25.1 36C25.1 35.9 24.9 35.7 25 35.6C25.1 35.6 25.1 35.5 25.2 35.4C25.4 35.4 25.4 35.3 25.5 35.2C25.6 35.2 25.6 35.1 25.7 35.1C25.8 35.1 25.9 35.1 25.9 35.1C26 35.1 26.1 35.1 26.2 35.1C26.3 35.1 26.3 35.1 26.4 35.1C26.5 35.1 26.5 35 26.7 35.1C26.9 35.1 27 35.1 27.1 35.1C27.2 35.1 27.4 35.1 27.5 35.2C27.6 35.2 27.8 35.1 27.9 35.2C28.1 35.3 28 35.2 28.1 35.3C28.1 35.4 28.2 35.5 28.2 35.5C28.3 35.5 28.4 35.5 28.4 35.5C28.5 35.5 28.6 35.5 28.6 35.5C28.7 35.7 28.8 35.6 28.9 35.7C29 35.8 29.1 35.7 29.2 35.7C29.3 35.8 29.3 35.8 29.5 35.9C29.7 36 29.7 35.9 29.8 36C29.9 36.1 30 36.1 30 36.2C30 36.3 30 36.3 30.1 36.3C30.3 36.3 30.3 36.4 30.4 36.4C30.5 36.4 30.6 36.4 30.6 36.4C30.6 36.5 30.6 36.6 30.7 36.6C30.8 36.6 30.8 36.5 31 36.6C31.1 36.7 31.2 36.6 31.3 36.7C31.4 36.8 31.3 36.7 31.4 36.9C31.5 37 31.5 36.8 31.5 37C31.8 37.4 31.5 37.4 31.5 37.4ZM35.3 38.2C35.2 38.2 35 38.2 34.9 38.2C34.8 38.2 34.6 38.2 34.6 38.2C34.5 38.2 34.4 38.2 34.3 38.2H34C34 38.2 33.8 38.3 33.8 38.4C33.8 38.5 33.9 38.7 33.8 38.6C33.7 38.5 33.5 38.5 33.5 38.4C33.4 38.3 33.5 38.3 33.4 38.3C33.3 38.3 33.2 38.3 33.1 38.3C33 38.3 32.9 38.3 32.8 38.3C32.7 38.3 32.6 38.3 32.5 38.3C32.4 38.3 32.4 38.2 32.3 38.3C32.2 38.4 32.1 38.4 32.1 38.4L32 38.3C31.9 38.2 31.8 38.1 31.9 38.1C32 38 32.3 37.9 32.4 38C32.5 38.1 32.7 38.1 32.8 38.1C32.9 38.1 32.9 38.2 33 38.2C33.1 38.2 33.3 38.2 33.2 38.1C33.2 38 33 38 33 37.9C32.9 37.8 32.9 37.8 32.9 37.7C32.9 37.6 32.9 37.5 32.8 37.5C32.8 37.5 32.6 37.5 32.6 37.4C32.6 37.3 32.4 37.3 32.5 37.2C32.6 37.1 32.6 37 32.8 37.1C33 37.2 33 37.3 33.1 37.3C33.2 37.3 33.3 37.3 33.4 37.3C33.5 37.3 33.5 37.3 33.7 37.3C33.9 37.3 33.9 37.2 34 37.3C34.1 37.3 34.3 37.2 34.4 37.3C34.5 37.4 34.5 37.4 34.6 37.5C34.6 37.5 34.5 37.4 34.9 37.6C35.3 37.8 35.5 37.8 35.5 37.9C35.5 38.3 35.4 38.2 35.3 38.2ZM37.3 38.6C37.2 38.6 37.1 38.6 37.1 38.6C37 38.6 37 38.6 36.9 38.7C36.7 38.8 36.7 38.7 36.6 38.7L36.5 38.6C36.5 38.5 36.3 38.4 36.5 38.3C36.6 38.3 36.9 38.2 37 38.3C37.1 38.3 37.2 38.3 37.3 38.3C37.4 38.3 37.4 38.3 37.5 38.4C37.4 38.5 37.5 38.6 37.3 38.6ZM38.2 39.2C38.2 39.2 38.1 39.2 38 39.2C37.9 39.2 38 39.1 38.1 39.1C38 39.1 38.1 39.1 38.2 39.2C38.2 39.2 38.2 39.1 38.2 39.2ZM39.2 38.9C39.2 39 39.2 39 39.1 39C39 39 39 38.9 39.1 38.8C39.1 38.7 39.2 38.8 39.2 38.9C39.2 38.8 39.2 38.8 39.2 38.9ZM39.4 39.5C39.3 39.5 39.3 39.4 39.4 39.4C39.5 39.4 39.6 39.5 39.6 39.5C39.5 39.5 39.4 39.5 39.4 39.5ZM39.8 18.8C39.8 18.8 39.8 18.9 39.7 19C39.6 19.1 39.6 19.1 39.5 19.1C39.4 19.1 39.4 19.1 39.3 19.1C39.3 19 39.2 19 39.1 19.1C39.1 19.1 38.9 19.1 38.8 19C38.7 18.9 38.8 18.8 38.8 18.8C38.8 18.8 39.3 18.8 39.5 18.8C39.9 18.6 39.8 18.7 39.8 18.8ZM40.2 16.7C40.1 16.7 40 16.7 39.9 16.7C39.8 16.7 39.6 16.6 39.6 16.6C39.5 16.6 39.4 16.5 39.3 16.4C39.2 16.4 39.1 16.3 38.9 16.2C38.7 16.2 38.6 16 38.6 16C38.7 15.9 39 15.9 39.1 15.9C39.3 15.9 39.3 15.9 39.4 15.9C39.5 15.9 39.7 16 39.7 16C39.8 16 40.1 16.3 40.2 16.3C40.3 16.3 40.2 16.5 40.2 16.5C40.2 16.5 40.3 16.7 40.2 16.7ZM40.7 19.1C40.6 19.1 40.6 19.2 40.5 19.1C40.4 19.1 40.3 19 40.3 19C40.3 19 40.3 19 40.3 18.9C40.3 18.8 40.6 18.5 40.7 18.4C40.8 18.3 40.8 18.2 40.9 18.3C41 18.5 41.1 18.3 41 18.6C41 18.8 40.8 19 40.7 19.1ZM40.7 41.7C40.6 41.7 40.6 41.5 40.7 41.4C40.9 41.4 40.8 41.7 40.7 41.7ZM40.6 42.1C40.6 42.1 40.5 42 40.6 42.1C40.6 41.9 40.7 42 40.6 42.1ZM40.7 41C40.7 41 40.8 41.1 40.8 41.2C40.8 41.3 40.7 41.2 40.6 41.2C40.5 41.2 40.5 41.1 40.5 40.9C40.5 41 40.6 41 40.7 41ZM40.1 40.2C40.1 40.1 40.1 40 40.1 40C40.1 40 40.1 40 40.1 40.1H40.2C40.2 40.2 40.2 40.2 40.2 40.3C40.2 40.2 40.2 40.2 40.1 40.2ZM40.3 42.8C40.2 42.8 40.2 42.6 40.3 42.6C40.4 42.7 40.4 42.8 40.3 42.8ZM40.3 40.7V40.5H40.4C40.5 40.5 40.5 40.6 40.5 40.6C40.5 40.6 40.5 40.7 40.4 40.7C40.4 40.8 40.3 40.8 40.3 40.7ZM40.7 44C40.6 44 40.6 44 40.5 44C40.4 44 40.5 43.9 40.5 43.8C40.5 43.7 40.6 43.6 40.7 43.5C40.8 43.4 40.9 43.6 40.9 43.8C40.9 44.1 40.8 44 40.7 44ZM41.3 19.1C41.2 19.2 41.1 19.2 41 19.3C40.9 19.4 40.8 19.4 40.8 19.3C40.8 19.2 40.8 19.2 40.8 19.2C40.8 19.1 40.8 19 41 18.9C41.2 18.9 41.3 18.7 41.3 18.9C41.4 19.1 41.4 19.1 41.3 19.1ZM46.1 17.9C46.1 18 46 17.9 46 18C46 18.1 45.9 18.1 45.9 18.2C45.9 18.3 46 18.2 45.8 18.3C45.7 18.4 45.5 18.4 45.5 18.4C45.4 18.3 45.4 18.2 45.4 18.1C45.3 18.1 45.2 18.2 45.1 18.2C45.1 18 45.1 17.9 45.1 17.9C45.1 17.8 45.1 17.8 45.1 17.8C44.9 17.7 44.8 17.7 44.8 17.8C44.8 17.9 44.7 17.9 44.6 18C44.5 18 44.4 18.1 44.4 18.2C44.4 18.3 44.3 18.3 44.2 18.3C44.1 18.3 44.1 18.3 44 18.3C43.9 18.3 43.8 18.3 43.9 18.2C43.9 18.1 43.9 18.1 44.1 18.1C44.2 18.1 44.2 18 44.3 18C44.3 18 44.3 17.9 44.2 17.8C44.1 17.8 44.1 17.8 44.1 17.7C44.1 17.6 44.2 17.5 44.1 17.5C44 17.5 44 17.5 43.8 17.6C43.6 17.7 43.6 17.7 43.5 17.7C43.5 17.7 43.4 17.7 43.3 17.7C43.1 17.7 43.2 17.7 43 17.7C42.8 17.7 42.6 17.7 42.5 17.7C42.4 17.7 42.3 17.6 42.1 17.7C42 17.7 41.8 17.7 41.8 17.7C41.8 17.7 41.8 17.6 41.9 17.5C42 17.4 42 17.4 42.1 17.3C42.2 17.3 42.3 17.2 42.3 17.2C42.3 17.2 42.4 17.1 42.3 17.1C42.2 17.1 42.1 17.1 42.1 17.1L42.2 17C42.3 17 42.4 16.9 42.4 16.9C42.4 16.8 42.5 16.8 42.5 16.7C42.5 16.6 42.5 16.6 42.6 16.5C42.7 16.4 42.7 16.4 42.8 16.3C42.9 16.2 42.9 16.2 43 16.1C43 16.1 43.1 16 43 15.9C43 15.8 43 15.8 43.1 15.7C43.2 15.6 43.2 15.5 43.3 15.4C43.4 15.3 43.4 15.3 43.5 15.2C43.5 15.1 43.7 15.1 43.8 15C43.8 14.9 43.9 14.7 44 14.7C44.1 14.6 44.1 14.6 44.2 14.6C44.3 14.6 44.2 14.6 44.4 14.6C44.6 14.6 44.5 14.5 44.6 14.6C44.6 14.5 44.6 14.5 44.6 14.5C44.6 14.5 44.6 14.5 44.6 14.6C44.6 14.8 44.7 14.7 44.5 14.8C44.4 14.9 44.3 14.8 44.3 14.9C44.3 15 44.5 15 44.4 15.1C44.3 15.3 44.1 15.4 44 15.5C43.9 15.6 43.8 15.6 43.8 15.7C43.8 15.8 43.8 15.8 43.8 15.9C43.8 16 43.8 15.9 43.7 16.1C43.6 16.2 43.6 16.3 43.6 16.3C43.6 16.3 43.7 16.2 43.9 16C44.1 15.9 44 15.9 44.1 15.9C44.2 15.9 44.2 15.9 44.3 16C44.4 16 44.5 16 44.5 16C44.5 16 44.6 16.1 44.4 16.2C44.3 16.3 44.3 16.2 44.3 16.3C44.2 16.4 44.2 16.4 44.2 16.5C44.2 16.6 44.3 16.6 44.3 16.6C44.4 16.6 44.5 16.6 44.5 16.6C44.6 16.7 44.6 16.9 44.6 16.9H44.7C44.7 16.9 44.8 16.8 44.8 16.7C44.9 16.7 45 16.6 45 16.6L45.1 16.5C45.1 16.7 45.3 16.7 45.3 16.7H45.4C45.5 16.7 45.6 16.8 45.6 16.8C45.6 16.9 45.5 16.9 45.5 17C45.5 17.1 45.4 17 45.3 17.1C45.2 17.3 45.3 17.2 45.3 17.3C45.3 17.4 45.4 17.3 45.3 17.4C45.2 17.5 45.3 17.5 45.3 17.5C45.3 17.5 45.4 17.6 45.5 17.6C45.6 17.6 45.6 17.5 45.7 17.5C45.8 17.5 45.9 17.4 45.9 17.5C45.9 17.6 45.9 17.5 45.8 17.7C45.6 17.8 45.6 17.8 45.5 17.9C45.3 18.1 45.3 18.1 45.3 18.2C45.3 18.2 45.4 18.4 45.5 18.3C45.6 18.2 45.6 18.1 45.7 18C45.8 17.9 45.9 17.9 45.9 17.9C45.9 18.1 45.9 18.2 45.9 18.2C45.9 18.3 45.8 18.3 45.8 18.3C45.9 18.3 46 18.2 46.1 18.2C46 17.6 46.1 17.8 46.1 17.9ZM39.4 68.4C39.4 68.4 39.4 68.5 39.4 68.4C39.4 68.5 39.4 68.4 39.4 68.4ZM23 50.3C23 50.4 22.8 50.4 22.8 50.4C22.7 50.4 22.6 50.3 22.6 50.2C22.6 50.1 22.7 50.2 22.7 50.1C22.7 50.1 22.7 50 22.6 49.9C22.5 49.9 22.5 49.9 22.5 49.8L22.6 49.6H22.7C22.7 49.6 22.8 49.7 22.9 49.7V49.8C22.9 49.9 23 50 23.1 50C23.1 50.2 23 50.2 23 50.3ZM23 49.8C23 49.8 23.1 49.8 23 49.8C23.1 49.8 23 49.8 23 49.8ZM23.4 50.2C23.4 50.3 23.4 50.2 23.3 50.2C23.2 50.2 23.2 50.1 23.2 50C23.2 49.9 23.2 50 23.3 50C23.3 50 23.4 50 23.5 50.1C23.5 50.1 23.4 50.2 23.4 50.2ZM23.8 50.3C23.7 50.3 23.7 50.2 23.8 50.2L23.9 50.3C24 50.3 23.9 50.3 23.8 50.3Z" fill="#029687"/>
<path d="M69.3 31.9L69.2 32C69.1 32 69.1 32.1 69.1 32.1C69 32 69 32 69 32.1V32.3C69.1 32.3 69 32.4 69.1 32.4C69.2 32.4 69.3 32.3 69.3 32.3V32.2C69.4 32.2 69.4 32.2 69.4 32.1C69.4 31.9 69.4 31.9 69.3 31.9Z" fill="#029687"/>
<path d="M68.7 32.1C68.7 32.1 68.6 32.2 68.7 32.2C68.7 32.3 68.8 32.3 68.8 32.3C68.8 32.3 68.7 32.2 68.7 32.1C68.7 32.1 68.8 32.1 68.7 32.1Z" fill="#029687"/>
<path d="M68.4 31.6C68.4 31.6 68.3 31.6 68.3 31.7C68.3 31.8 68.3 31.8 68.3 31.8L68.4 31.9L68.6 31.8C68.5 31.7 68.4 31.6 68.4 31.6Z" fill="#029687"/>
<path d="M69.9 32.1C69.8 32.1 69.7 32.1 69.7 32.1C69.7 32.2 69.6 32.1 69.6 32.2C69.6 32.3 69.6 32.3 69.7 32.3C69.8 32.3 69.8 32.3 69.8 32.4C69.8 32.5 69.9 32.4 70 32.4L70.1 32.3C69.9 32.3 69.9 32.2 69.9 32.1C70 32.1 69.9 32.2 69.9 32.1Z" fill="#029687"/>
<path d="M70.8 31.7C70.7 31.8 70.7 31.8 70.7 31.8C70.7 31.8 70.7 31.9 70.6 31.9C70.5 31.9 70.5 31.9 70.5 31.9V32C70.5 32.1 70.4 32.1 70.4 32.1C70.4 32.1 70.4 32.1 70.5 32.1L70.6 32C70.7 31.9 70.7 31.9 70.8 31.9C70.8 31.9 70.9 31.8 70.9 31.7C70.9 31.6 70.9 31.6 70.9 31.6C70.9 31.8 70.9 31.7 70.8 31.7Z" fill="#029687"/>
<path d="M71.2 31.3C71.1 31.4 71.1 31.4 71.1 31.4C71 31.4 71 31.4 71 31.5C71 31.6 70.9 31.5 70.9 31.6C70.9 31.7 70.9 31.7 70.9 31.7C71 31.7 71 31.7 71 31.7C71 31.7 71 31.6 71.1 31.6C71.1 31.6 71.2 31.6 71.2 31.5C71.2 31.4 71.2 31.4 71.2 31.3Z" fill="#029687"/>
<path d="M68.2 32.3C68.1 32.4 68.1 32.4 68.2 32.3C68.2 32.4 68.2 32.3 68.2 32.4C68.2 32.5 68.2 32.5 68.3 32.5L68.4 32.4V32.3C68.3 32.3 68.2 32.3 68.2 32.3Z" fill="#029687"/>
<path d="M68.8 28.7C68.8 28.7 68.7 28.7 68.7 28.8C68.7 28.9 68.7 28.9 68.7 28.9C68.8 28.9 68.8 28.9 68.8 28.9C68.8 28.9 68.8 28.9 68.9 28.8H69C69 28.8 69 28.8 69 28.7C69 28.6 69 28.6 69 28.6C69 28.7 68.8 28.7 68.8 28.7Z" fill="#029687"/>
</svg>
